<svg width="231" height="566" viewBox="0 0 231 566" fill="none" xmlns="http://www.w3.org/2000/svg">
<path d="M9.7846e-06 -3.26148e-05L52.2208 -2.80495e-05C76.7952 -2.59011e-05 96.8644 1.84463 112.428 5.53393C127.787 9.01827 139.87 15.3721 148.676 24.5953C157.277 33.8186 163.215 46.3212 166.492 62.1032C169.564 77.6802 171.1 97.6639 171.1 122.054L171.1 173.09C171.1 183.543 172.636 192.971 175.707 201.374C178.574 209.778 182.67 217.361 187.995 224.125C193.114 231.094 199.36 237.242 206.733 242.571C214.105 247.9 222.194 252.717 231 257.021L231 305.904C222.194 310.209 214.105 315.025 206.733 320.354C199.36 325.683 193.114 331.729 187.995 338.493C182.67 345.257 178.574 352.738 175.707 360.936C172.636 369.34 171.1 378.768 171.1 389.221L171.1 444.561C171.1 468.746 169.564 488.73 166.492 504.512C163.215 520.294 157.277 532.694 148.676 541.712C139.87 550.73 127.787 556.982 112.428 560.466C96.8643 564.155 76.7952 566 52.2207 566L-3.96967e-05 566L-3.50738e-05 513.12C11.6728 510.66 21.605 508.303 29.7965 506.049C37.988 503.999 44.746 500.822 50.0705 496.518C55.3949 492.214 59.2859 486.27 61.7433 478.687C64.2008 471.103 65.4295 460.548 65.4295 447.02L65.4295 402.441C65.4295 386.249 67.2726 370.672 70.9588 355.71C74.4402 340.748 80.1742 327.63 88.1609 316.357C96.1476 305.289 106.592 296.476 119.493 289.917C132.395 283.564 148.164 280.797 166.799 281.617C147.344 281.207 131.166 277.927 118.265 271.778C105.158 265.63 94.7141 257.124 86.9322 246.261C79.1503 235.603 73.621 222.895 70.3444 208.138C67.0678 193.586 65.4295 177.701 65.4295 160.484L65.4295 118.98C65.4295 103.403 64.508 91.4126 62.6649 83.0092C60.8218 74.6058 57.4428 68.252 52.5279 63.9478C47.613 59.8486 40.9575 57.0816 32.5612 55.6469C23.9601 54.0072 13.1064 52.265 5.37671e-06 50.4204L9.7846e-06 -3.26148e-05Z" fill="#EE4C7C"/>
</svg>
