<svg width="1500" height="612" viewBox="0 0 1500 612" fill="none" xmlns="http://www.w3.org/2000/svg">
<path d="M1500 6.79552e-05L1500 138.351C1500 203.458 1495.11 256.628 1485.33 297.862C1476.1 338.553 1459.26 370.564 1434.82 393.894C1410.37 416.681 1377.24 432.415 1335.42 441.096C1294.13 449.234 1241.17 453.303 1176.53 453.303L1041.28 453.303C1013.58 453.303 988.593 457.372 966.323 465.511C944.052 473.106 923.954 483.958 906.029 498.064C887.561 511.628 871.266 528.176 857.143 547.708C843.02 567.239 830.255 588.67 818.848 612L689.299 612C677.892 588.67 665.128 567.239 651.005 547.708C636.882 528.176 620.858 511.628 602.933 498.064C585.008 483.957 565.182 473.106 543.455 465.511C521.184 457.372 496.198 453.303 468.495 453.303L321.836 453.303C257.74 453.303 204.78 449.234 162.955 441.096C121.13 432.415 88.2673 416.681 64.3672 393.894C40.4672 370.564 23.9001 338.553 14.666 297.862C4.88869 256.628 5.35739e-05 203.457 6.21116e-05 138.351L8.02541e-05 -0.000128746L140.141 -0.000110369C146.659 30.9254 152.906 57.2393 158.881 78.9414C164.313 100.644 172.732 118.548 184.139 132.654C195.546 146.761 211.298 157.069 231.396 163.58C251.494 170.09 279.468 173.346 315.318 173.346L433.46 173.346C476.372 173.346 517.653 178.229 557.306 187.995C596.958 197.218 631.722 212.41 661.597 233.569C690.929 254.729 714.286 282.399 731.668 316.58C748.506 350.761 755.839 392.537 753.666 441.91C754.753 390.367 763.444 347.505 779.739 313.325C796.035 278.601 818.577 250.931 847.366 230.314C875.611 209.697 909.288 195.048 948.398 186.367C986.964 177.686 1029.06 173.346 1074.69 173.346L1184.68 173.346C1225.96 173.346 1257.74 170.904 1280.01 166.021C1302.28 161.138 1319.12 152.186 1330.53 139.165C1341.39 126.144 1348.72 108.511 1352.53 86.266C1356.87 63.4788 1361.49 34.7235 1366.38 5.04327e-05L1500 6.79552e-05Z" fill="#EE4C7C"/>
</svg>
