<svg width="73" height="129" viewBox="0 0 73 129" fill="none" xmlns="http://www.w3.org/2000/svg">
<path d="M72.6661 129H60.7803C55.1871 129 50.6192 128.58 47.0768 127.741C43.581 126.949 40.831 125.504 38.8267 123.407C36.8691 121.309 35.5174 118.466 34.7716 114.877C34.0724 111.335 33.7228 106.79 33.7228 101.243V89.6372C33.7228 87.2601 33.3733 85.116 32.6741 83.205C32.0216 81.2939 31.0893 79.5693 29.8775 78.0312C28.7122 76.4464 27.2906 75.0481 25.6126 73.8362C23.9346 72.6244 22.0935 71.529 20.0892 70.5502V59.4335C22.0935 58.4547 23.9346 57.3594 25.6126 56.1475C27.2906 54.9356 28.7122 53.5606 29.8775 52.0224C31.0893 50.4843 32.0216 48.783 32.6741 46.9186C33.3733 45.0075 33.7228 42.8634 33.7228 40.4863V27.9014C33.7228 22.4013 34.0724 17.8568 34.7716 14.2678C35.5174 10.6788 36.8691 7.85881 38.8267 5.80794C40.831 3.75707 43.581 2.33545 47.0768 1.54306C50.6192 0.704073 55.1871 0.284576 60.7803 0.284576H72.6661V12.3101C70.0093 12.8695 67.7486 13.4055 65.8842 13.9182C64.0198 14.3843 62.4816 15.1068 61.2698 16.0856C60.0579 17.0644 59.1723 18.4161 58.6129 20.1407C58.0536 21.8653 57.774 24.2658 57.774 27.3421V37.4799C57.774 41.1621 57.3545 44.7046 56.5155 48.1071C55.7231 51.5097 54.418 54.4928 52.6002 57.0564C50.7824 59.5734 48.4052 61.5776 45.4687 63.0692C42.5323 64.5141 38.9432 65.1433 34.7017 64.9569C39.1297 65.0501 42.8119 65.7959 45.7484 67.1942C48.7315 68.5925 51.1086 70.5269 52.8798 72.9972C54.651 75.421 55.9095 78.3109 56.6553 81.6668C57.4011 84.9762 57.774 88.5885 57.774 92.5038V101.942C57.774 105.485 57.9837 108.212 58.4032 110.123C58.8227 112.034 59.5918 113.479 60.7104 114.457C61.8291 115.39 63.3439 116.019 65.255 116.345C67.2126 116.718 69.683 117.114 72.6661 117.534V129Z" fill="#EE4C7C"/>
<path d="M20.7651 128.86H0V0.00488281H20.7651V128.86Z" fill="#EE4C7C"/>
</svg>
