<svg width="241" height="129" viewBox="0 0 241 129" fill="none" xmlns="http://www.w3.org/2000/svg">
<path d="M72.6661 129H60.7804C55.1871 129 50.6192 128.58 47.0768 127.741C43.581 126.949 40.831 125.504 38.8267 123.407C36.8691 121.309 35.5174 118.466 34.7716 114.877C34.0724 111.335 33.7229 106.79 33.7229 101.243V89.6372C33.7229 87.2601 33.3733 85.116 32.6741 83.205C32.0216 81.2939 31.0894 79.5693 29.8775 78.0312C28.7122 76.4464 27.2906 75.0481 25.6126 73.8362C23.9346 72.6244 22.0935 71.529 20.0892 70.5502V59.4335C22.0935 58.4547 23.9346 57.3594 25.6126 56.1475C27.2906 54.9356 28.7122 53.5606 29.8775 52.0224C31.0894 50.4843 32.0216 48.783 32.6741 46.9186C33.3733 45.0075 33.7229 42.8634 33.7229 40.4863V27.9014C33.7229 22.4013 34.0724 17.8568 34.7716 14.2678C35.5174 10.6788 36.8691 7.85881 38.8267 5.80794C40.831 3.75707 43.581 2.33545 47.0768 1.54306C50.6192 0.704073 55.1871 0.284576 60.7804 0.284576H72.6661V12.3101C70.0093 12.8695 67.7487 13.4055 65.8842 13.9182C64.0198 14.3843 62.4816 15.1068 61.2698 16.0856C60.0579 17.0644 59.1723 18.4161 58.613 20.1407C58.0536 21.8653 57.774 24.2658 57.774 27.3421V37.4799C57.774 41.1621 57.3545 44.7046 56.5155 48.1071C55.7231 51.5097 54.418 54.4928 52.6002 57.0564C50.7824 59.5734 48.4052 61.5776 45.4687 63.0692C42.5323 64.5141 38.9433 65.1433 34.7017 64.9569C39.1297 65.0501 42.8119 65.7959 45.7484 67.1942C48.7315 68.5925 51.1086 70.5269 52.8798 72.9972C54.6511 75.421 55.9095 78.3109 56.6553 81.6668C57.4011 84.9762 57.774 88.5885 57.774 92.5038V101.942C57.774 105.485 57.9837 108.212 58.4032 110.123C58.8227 112.034 59.5918 113.479 60.7104 114.457C61.8291 115.39 63.3439 116.019 65.255 116.345C67.2126 116.718 69.683 117.114 72.6661 117.534V129Z" fill="#EE4C7C"/>
<path d="M20.7651 128.86H1.52588e-05V0.00488281H20.7651V128.86Z" fill="#EE4C7C"/>
<path d="M218.262 81.1626V83.7863C218.262 86.1184 218.816 87.8383 219.924 88.9461C221.031 90.0538 223.13 90.6077 226.22 90.6077C229.31 90.6077 232.225 89.4708 234.966 87.197V70.843L224.996 73.6416C222.372 74.3995 220.594 75.3323 219.661 76.4401C218.728 77.5479 218.262 79.122 218.262 81.1626ZM226.133 45.1315C236.044 45.1315 241 49.3584 241 57.8123V95.3302H235.053V91.7446C232.08 94.3682 228.523 95.68 224.384 95.68C216.28 95.68 212.228 91.6863 212.228 83.6988V80.9003C212.228 74.8368 215.755 70.8139 222.81 68.8316L235.053 65.4209V57.8123C234.995 55.4219 234.324 53.6728 233.042 52.5651C231.759 51.4573 229.165 50.9035 225.258 50.9035C221.41 50.9035 217.854 51.4865 214.589 52.6525V46.7931C217.912 45.6853 221.76 45.1315 226.133 45.1315Z" fill="#2E3944"/>
<path d="M206.788 45.3064H208.974V51.2532H206.001C203.902 51.2532 202.007 51.8071 200.316 52.9149C199.791 53.2647 198.654 54.0518 196.905 55.2761V95.3302H190.696V45.5687H196.643V49.3292C196.818 49.2126 197.255 48.892 197.955 48.3673C198.713 47.8425 199.15 47.551 199.267 47.4927C199.442 47.3761 199.821 47.1429 200.404 46.7931C201.045 46.4433 201.511 46.2392 201.803 46.1809C202.153 46.0643 202.619 45.9185 203.202 45.7436C204.077 45.4521 205.272 45.3064 206.788 45.3064Z" fill="#2E3944"/>
<path d="M151.731 82.6493V58.337C151.731 54.1975 152.897 50.9034 155.229 48.4547C157.62 45.9477 161.205 44.6942 165.986 44.6942C170.767 44.6942 174.294 45.9477 176.568 48.4547C178.9 50.9034 180.066 54.1975 180.066 58.337V73.5541H157.853V82.387C157.853 85.0106 158.669 86.9637 160.302 88.2464C161.934 89.5291 164.47 90.1704 167.91 90.1704C171.35 90.1704 174.906 89.6457 178.58 88.5962V94.3682C175.664 95.301 172.195 95.7675 168.173 95.7675C157.212 95.7675 151.731 91.3948 151.731 82.6493ZM157.853 68.3943H174.119V58.337C174.119 52.8566 171.408 50.1163 165.986 50.1163C160.564 50.1163 157.853 52.8566 157.853 58.337V68.3943Z" fill="#2E3944"/>
<path d="M134.304 51.2533H127.133C121.594 51.2533 118.825 53.7603 118.825 58.7743V82.6494C118.825 87.5468 121.186 89.9955 125.909 89.9955C129.407 89.9955 132.206 89.0044 134.304 87.0221V51.2533ZM134.304 32.3632H140.514V95.3302H134.479V92.4442C131.856 94.5431 128.591 95.5926 124.685 95.5926C120.778 95.5926 117.776 94.514 115.677 92.3568C113.636 90.1996 112.616 87.1095 112.616 83.0866V58.6869C112.616 54.5474 113.84 51.3407 116.289 49.0669C118.738 46.7348 122.003 45.5688 126.084 45.5688H134.304V32.3632Z" fill="#2E3944"/>
<path d="M96.1409 58.337C96.1409 52.9149 93.459 50.2038 88.0951 50.2038C82.7313 50.2038 80.0493 52.9149 80.0493 58.337V82.5619C80.0493 88.0423 82.7313 90.7826 88.0951 90.7826C93.459 90.7826 96.1409 88.0423 96.1409 82.5619V58.337ZM73.9275 58.2496C73.9275 54.1101 75.0936 50.816 77.4257 48.3673C79.7578 45.9185 83.3143 44.6942 88.0951 44.6942C92.876 44.6942 96.4324 45.9185 98.7646 48.3673C101.097 50.816 102.263 54.1101 102.263 58.2496V82.6493C102.263 86.7888 101.097 90.0829 98.7646 92.5317C96.4324 94.9804 92.876 96.2047 88.0951 96.2047C83.3143 96.2047 79.7578 94.9804 77.4257 92.5317C75.0936 90.0829 73.9275 86.7888 73.9275 82.6493V58.2496Z" fill="#2E3944"/>
</svg>
