<svg width="467" height="471" viewBox="0 0 467 471" fill="none" xmlns="http://www.w3.org/2000/svg">
<path d="M215.235 465.976C220.101 469.382 226.12 470.714 231.969 469.682C237.818 468.649 243.017 465.336 246.422 460.47C247.601 458.784 248.062 456.7 247.704 454.674C247.346 452.649 246.198 450.849 244.512 449.67L226.578 430.776L267.508 459.423C269.071 460.521 270.836 461.3 272.701 461.715C274.566 462.13 276.495 462.173 278.376 461.84C280.258 461.508 282.056 460.807 283.666 459.779C285.276 458.75 286.667 457.413 287.759 455.845C288.854 454.281 289.63 452.516 290.043 450.651C290.456 448.787 290.497 446.859 290.165 444.979C289.833 443.098 289.134 441.302 288.107 439.691C287.08 438.081 285.747 436.689 284.182 435.594L249.321 403.554L301.429 440.034C302.992 441.133 304.757 441.912 306.622 442.326C308.487 442.741 310.416 442.784 312.297 442.451C314.179 442.119 315.976 441.418 317.587 440.39C319.197 439.361 320.588 438.024 321.68 436.457C322.775 434.892 323.551 433.127 323.964 431.263C324.377 429.398 324.418 427.47 324.086 425.59C323.754 423.709 323.054 421.913 322.028 420.302C321.001 418.692 319.668 417.3 318.103 416.205L271.899 376.719L328.747 416.515C330.311 417.614 332.076 418.393 333.941 418.808C335.806 419.223 337.735 419.265 339.616 418.933C341.498 418.6 343.295 417.9 344.906 416.871C346.516 415.842 347.907 414.506 348.999 412.938C350.094 411.373 350.87 409.608 351.283 407.744C351.696 405.879 351.737 403.952 351.405 402.071C351.073 400.191 350.373 398.394 349.347 396.784C348.32 395.173 346.987 393.781 345.422 392.686L101.859 280.454L68.248 333.977C64.4769 339.793 65.5045 347.675 70.9237 352.309L146.405 416.98C149.849 419.928 153.427 422.703 157.136 425.308L215.235 465.976Z" fill="#E0AA94"/>
<path d="M344.889 382.808L235.322 303.788L234.75 303.013L235.264 302.237L235.778 301.723L244.057 306.27C253.344 312.28 274.565 321.161 290.648 321.161C301.651 321.161 308.244 317.04 310.212 308.975C310.807 305.41 309.967 301.754 307.874 298.807C305.781 295.86 302.606 293.862 299.044 293.25C289.317 291.794 280.039 288.181 271.889 282.674L266.509 279.058C260.46 274.976 253.606 270.352 248.545 267.366C242.244 263.546 235.39 261.695 227.576 261.695C215.982 261.695 204.203 265.786 192.822 269.741L180.548 273.968C175.251 275.749 169.695 276.637 164.107 276.595C149.138 276.595 134.49 270.914 120.327 265.427L118.901 264.865C115.986 263.75 112.775 263.683 109.815 264.673C106.855 265.663 104.331 267.65 102.673 270.294L69.0623 323.836C67.3571 326.506 66.6705 329.701 67.128 332.836C67.5855 335.971 69.1566 338.837 71.5538 340.908L147.025 405.589C150.437 408.507 154.024 411.29 157.689 413.849L217.455 455.69C219.541 457.152 221.894 458.188 224.381 458.739C226.867 459.291 229.437 459.348 231.946 458.905C234.454 458.463 236.85 457.532 238.998 456.163C241.146 454.795 243.003 453.017 244.464 450.93C245.639 449.243 246.099 447.159 245.743 445.134C245.387 443.109 244.244 441.307 242.564 440.121L224.794 427.683C224.329 427.356 223.938 426.937 223.643 426.452C223.349 425.966 223.159 425.425 223.084 424.862C223.009 424.299 223.052 423.727 223.209 423.181C223.367 422.635 223.636 422.128 223.999 421.692C224.654 420.899 225.585 420.383 226.604 420.248C227.624 420.113 228.657 420.369 229.496 420.965L268.07 447.964C271.019 450.029 274.667 450.837 278.213 450.212C281.758 449.586 284.909 447.578 286.974 444.629C289.039 441.68 289.847 438.031 289.222 434.486C288.596 430.941 286.588 427.789 283.639 425.725L247.537 400.461C247.073 400.134 246.681 399.715 246.387 399.229C246.092 398.744 245.902 398.203 245.827 397.64C245.752 397.077 245.795 396.505 245.953 395.959C246.11 395.413 246.379 394.906 246.742 394.47C247.401 393.683 248.331 393.171 249.349 393.037C250.367 392.902 251.398 393.154 252.239 393.743L301.991 428.575C303.451 429.597 305.098 430.322 306.839 430.708C308.579 431.093 310.378 431.132 312.133 430.823C313.889 430.513 315.566 429.861 317.069 428.903C318.573 427.945 319.873 426.7 320.895 425.24C321.917 423.78 322.642 422.133 323.027 420.392C323.413 418.652 323.452 416.853 323.143 415.097C322.833 413.342 322.181 411.665 321.223 410.161C320.265 408.658 319.02 407.358 317.56 406.336L270.367 373.307C269.899 372.983 269.503 372.565 269.207 372.079C268.91 371.593 268.718 371.05 268.644 370.486C268.57 369.921 268.615 369.347 268.777 368.801C268.939 368.255 269.213 367.749 269.582 367.316C270.171 366.614 271.002 366.158 271.91 366.04C272.819 365.921 273.739 366.148 274.488 366.676L329.319 405.056C330.78 406.079 332.428 406.803 334.169 407.189C335.91 407.574 337.71 407.613 339.466 407.303C341.221 406.992 342.899 406.34 344.403 405.381C345.906 404.423 347.206 403.177 348.228 401.717C349.251 400.256 349.975 398.608 350.361 396.867C350.746 395.126 350.785 393.326 350.475 391.57C350.165 389.814 349.512 388.137 348.553 386.633C347.595 385.13 346.35 383.83 344.889 382.808Z" fill="#FFE8C3"/>
<path d="M216.282 442.69C215.604 445.278 214.275 447.518 212.511 449.292L202.778 458.948C200.992 460.746 198.767 462.047 196.323 462.72C193.879 463.393 191.302 463.416 188.847 462.787C186.368 462.141 184.104 460.853 182.284 459.052C180.463 457.251 179.15 455.001 178.478 452.529C177.807 450.058 177.799 447.453 178.457 444.978C179.115 442.503 180.415 440.246 182.226 438.434L191.959 428.779C193.745 426.98 195.97 425.68 198.414 425.006C200.857 424.333 203.434 424.31 205.89 424.94C207.738 425.422 209.473 426.265 210.995 427.418C212.518 428.571 213.798 430.013 214.763 431.662C215.728 433.31 216.359 435.133 216.62 437.025C216.88 438.917 216.766 440.842 216.282 442.69ZM114.064 394.984L128.635 380.471C130.301 378.807 131.538 376.764 132.24 374.516C132.941 372.268 133.087 369.884 132.663 367.567C132.24 365.251 131.26 363.072 129.809 361.218C128.357 359.364 126.477 357.89 124.33 356.923C121.641 355.714 118.646 355.353 115.747 355.89C112.847 356.427 110.18 357.836 108.102 359.929L93.5311 374.441C91.8654 376.106 90.6288 378.15 89.9278 380.398C89.2268 382.646 89.0822 385.031 89.5066 387.348C89.931 389.664 90.9116 391.843 92.364 393.696C93.8165 395.55 95.6975 397.023 97.8451 397.989C100.535 399.19 103.526 399.545 106.422 399.008C109.318 398.472 111.983 397.068 114.064 394.984ZM164.514 395.488C165.941 394.155 167.086 392.549 167.879 390.764C168.672 388.98 169.097 387.054 169.13 385.101C169.163 383.149 168.802 381.21 168.068 379.4C167.335 377.59 166.245 375.946 164.863 374.566C163.481 373.187 161.835 372.1 160.024 371.37C158.212 370.64 156.273 370.283 154.32 370.319C152.368 370.356 150.442 370.785 148.659 371.581C146.876 372.378 145.272 373.525 143.942 374.955L114.84 404.019C113.412 405.352 112.268 406.958 111.475 408.743C110.682 410.527 110.256 412.453 110.223 414.406C110.191 416.358 110.552 418.297 111.285 420.107C112.018 421.917 113.108 423.561 114.49 424.94C115.872 426.32 117.518 427.407 119.33 428.137C121.141 428.866 123.081 429.224 125.033 429.187C126.986 429.151 128.911 428.722 130.694 427.926C132.477 427.129 134.081 425.982 135.411 424.552L164.514 395.488ZM186.326 424.571C188.289 422.605 189.647 420.117 190.24 417.402C190.833 414.688 190.636 411.861 189.672 409.255C188.708 406.649 187.018 404.374 184.801 402.699C182.585 401.023 179.935 400.018 177.165 399.802C175.074 399.645 172.973 399.945 171.009 400.681C169.045 401.418 167.266 402.573 165.793 404.067L146.356 423.408C144.391 425.374 143.03 427.863 142.435 430.578C141.841 433.294 142.037 436.124 143.001 438.731C143.965 441.339 145.657 443.616 147.875 445.291C150.093 446.967 152.745 447.972 155.517 448.187C159.928 448.536 163.99 446.82 166.889 443.921L186.326 424.571ZM346.818 384.465L352.896 379.211L285.879 274.026L166.928 293.27C165.036 293.589 163.226 294.278 161.6 295.297C159.974 296.316 158.566 297.646 157.454 299.21C156.342 300.773 155.549 302.541 155.12 304.411C154.692 306.281 154.635 308.217 154.955 310.109C161.334 336.235 213.151 316.827 235.952 304.283L346.818 384.465Z" fill="#B96851"/>
<path d="M216.282 432.996C215.604 435.584 214.275 437.823 212.511 439.598L202.778 449.253C200.992 451.052 198.767 452.352 196.323 453.026C193.879 453.699 191.302 453.722 188.847 453.092C186.368 452.447 184.104 451.159 182.284 449.357C180.463 447.556 179.15 445.306 178.478 442.835C177.807 440.364 177.799 437.759 178.457 435.284C179.115 432.809 180.415 430.551 182.226 428.74L191.959 419.084C193.745 417.286 195.97 415.985 198.414 415.312C200.857 414.638 203.434 414.615 205.89 415.245C207.738 415.728 209.473 416.57 210.995 417.723C212.518 418.877 213.798 420.319 214.763 421.967C215.728 423.616 216.359 425.438 216.62 427.33C216.88 429.223 216.766 431.148 216.282 432.996ZM114.064 385.289L128.635 370.777C130.301 369.113 131.538 367.069 132.24 364.821C132.941 362.574 133.087 360.189 132.663 357.873C132.24 355.557 131.26 353.378 129.809 351.524C128.357 349.67 126.477 348.196 124.33 347.229C121.639 346.026 118.647 345.669 115.748 346.206C112.85 346.743 110.184 348.148 108.102 350.234L93.5311 364.747C91.8654 366.411 90.6288 368.456 89.9278 370.704C89.2268 372.952 89.0822 375.337 89.5066 377.653C89.931 379.969 90.9116 382.148 92.364 384.002C93.8165 385.855 95.6975 387.329 97.8451 388.295C100.535 389.495 103.526 389.851 106.422 389.314C109.318 388.777 111.983 387.374 114.064 385.289ZM164.514 385.793C165.941 384.461 167.086 382.854 167.879 381.07C168.672 379.285 169.097 377.359 169.13 375.407C169.163 373.454 168.802 371.515 168.068 369.705C167.335 367.895 166.245 366.251 164.863 364.872C163.481 363.492 161.835 362.405 160.024 361.676C158.212 360.946 156.273 360.589 154.32 360.625C152.368 360.661 150.443 361.09 148.66 361.887C146.876 362.683 145.272 363.831 143.942 365.261L114.84 394.324C113.412 395.657 112.268 397.264 111.475 399.048C110.682 400.833 110.256 402.759 110.223 404.711C110.191 406.664 110.552 408.603 111.285 410.413C112.018 412.223 113.108 413.866 114.49 415.246C115.872 416.626 117.518 417.713 119.33 418.442C121.141 419.172 123.081 419.529 125.033 419.493C126.986 419.457 128.911 419.028 130.694 418.231C132.477 417.435 134.081 416.287 135.411 414.857L164.514 385.793ZM186.326 414.877C188.289 412.91 189.647 410.422 190.24 407.708C190.833 404.994 190.636 402.166 189.672 399.56C188.708 396.955 187.018 394.679 184.801 393.004C182.585 391.329 179.935 390.324 177.165 390.107C175.074 389.95 172.973 390.25 171.009 390.987C169.045 391.724 167.266 392.879 165.794 394.373L146.356 413.713C144.391 415.68 143.03 418.168 142.435 420.884C141.841 423.6 142.037 426.429 143.001 429.037C143.965 431.645 145.657 433.921 147.875 435.597C150.093 437.273 152.745 438.278 155.517 438.492C159.928 438.841 163.99 437.125 166.889 434.227L186.326 414.877ZM395.309 342.595C397.876 340.376 399.554 337.304 400.033 333.946C400.512 330.587 399.761 327.169 397.917 324.321L397.888 324.272L364.278 261.055C362.5 258.222 359.795 256.093 356.623 255.033C353.451 253.972 350.01 254.045 346.886 255.238C327.574 262.713 306.421 271.302 285.888 264.322L275.244 260.667C256.359 254.123 235.826 246.455 217.077 257.817C210.339 261.782 200.228 268.801 193.704 273.134C185.64 278.51 176.503 282.069 166.928 283.565C165.032 283.876 163.217 284.56 161.586 285.577C159.956 286.594 158.544 287.923 157.431 289.489C156.317 291.055 155.525 292.825 155.101 294.699C154.676 296.573 154.626 298.512 154.955 300.405C160.898 324.757 206.336 309.207 230.94 296.827C232.477 296.058 234.194 295.725 235.907 295.864C237.619 296.002 239.261 296.607 240.654 297.613L352.954 379.201L395.309 342.595Z" fill="#DE8B74"/>
<path d="M143 258.5L71 394L0 328L25 172L143 258.5Z" fill="#3A998B"/>
<path d="M406.5 390.5L335 247L427.5 190.5L467 294L406.5 390.5Z" fill="#E82E65"/>
<path d="M77 360C77 366.075 72.0751 371 66 371C59.9249 371 55 366.075 55 360C55 353.925 59.9249 349 66 349C72.0751 349 77 353.925 77 360Z" fill="white"/>
<path d="M419 345C419 351.075 414.075 356 408 356C401.925 356 397 351.075 397 345C397 338.925 401.925 334 408 334C414.075 334 419 338.925 419 345Z" fill="white"/>
<path fill-rule="evenodd" clip-rule="evenodd" d="M185.475 0C224.498 0 258.377 18.486 275.355 45.5889C231.151 50.0939 197 79.9007 197 116C197 134.878 206.34 152.035 221.573 164.753C210.357 168.337 198.189 170.3 185.475 170.3C179.389 170.3 173.442 169.848 167.651 168.991L167.615 168.983C153.909 165.715 148.106 180.958 116.87 188.862C110.455 190.489 109.681 188.87 114.596 183.657C123.49 174.244 132.062 158.899 123.152 152.338C122.877 152.181 119.444 149.808 118.136 148.85C97.1965 133.253 84 110.479 84 85.1436L84.0088 84.0518C84.7106 37.5337 129.864 0.000176047 185.475 0ZM126 113C122.686 113 120 115.686 120 119C120 122.314 122.686 125 126 125H168C171.314 125 174 122.314 174 119C174 115.686 171.314 113 168 113H126ZM121 81C117.686 81 115 83.6863 115 87C115 90.3137 117.686 93 121 93H163C166.314 93 169 90.3137 169 87C169 83.6863 166.314 81 163 81H121ZM126 50C122.686 50 120 52.6863 120 56C120 59.3137 122.686 62 126 62H194C197.314 62 200 59.3137 200 56C200 52.6863 197.314 50 194 50H126Z" fill="#17E9CA"/>
<path fill-rule="evenodd" clip-rule="evenodd" d="M287.5 52C332.712 52 369.423 80.3283 369.993 115.438L370 116.262C370 135.383 359.272 152.572 342.248 164.344C341.184 165.067 338.393 166.858 338.169 166.977C330.925 171.928 337.894 183.51 345.125 190.614C349.121 194.549 348.492 195.77 343.276 194.543C317.881 188.577 313.163 177.072 302.02 179.539L301.991 179.545C297.283 180.191 292.447 180.532 287.5 180.532C241.938 180.532 205 151.757 205 116.262C205 80.7729 241.938 52 287.5 52ZM254 125C250.686 125 248 127.686 248 131C248 134.314 250.686 137 254 137H322C325.314 137 328 134.314 328 131C328 127.686 325.314 125 322 125H254ZM254 97C250.686 97 248 99.6863 248 103C248 106.314 250.686 109 254 109H322C325.314 109 328 106.314 328 103C328 99.6863 325.314 97 322 97H254Z" fill="#E82E65"/>
</svg>
