<svg width="314" height="453" viewBox="0 0 314 453" fill="none" xmlns="http://www.w3.org/2000/svg">
<path d="M267.113 216.703C267.113 149.488 214.354 95 149.273 95C84.1916 95 31.4324 149.489 31.4324 216.703C31.4324 247.098 42.2223 274.89 60.0606 296.218L85.8354 342.942C92.5675 355.406 95.0665 363.454 106.348 363.454H190.394C201.676 363.454 204.995 354.979 210.906 342.942L238.486 296.218H238.484C256.322 274.89 267.113 247.098 267.113 216.703Z" fill="#EE4C7C"/>
<path d="M38.7229 231.525C38.7229 162.066 91.0748 104.66 159.038 95.4586C155.647 95.1557 152.245 95.0027 148.84 95C83.7592 95 31 149.489 31 216.703C31 238.822 36.7184 259.558 46.7045 277.432C41.5365 263.077 38.7229 247.624 38.7229 231.525Z" fill="#FC89AB"/>
<path d="M267.113 216.963C267.113 192.888 260.343 170.448 248.664 151.557C251.164 161.422 252.429 171.559 252.429 181.735C252.429 261.708 174.995 326.838 78.2634 329.476L85.8355 343.203C92.5676 355.667 95.0666 363.715 106.348 363.715H190.394C201.676 363.715 204.995 355.24 210.906 343.203L238.486 296.479H238.484C256.323 275.15 267.113 247.359 267.113 216.963Z" fill="#E82E65"/>
<path d="M198.815 237.587C198.929 237.487 199.042 237.395 199.157 237.285C201.291 235.243 203.048 231.986 201.577 228.964C195.545 216.58 177.1 212.651 163.66 216.752C162.98 216.959 162.32 217.185 161.679 217.43C154.358 213.155 145.269 212.128 137.178 214.697C136.22 215 135.28 215.356 134.362 215.764C129.933 213.177 124.752 211.886 119.59 212.385C108.786 213.43 99.3969 222.192 97.5364 232.867L96.6851 233.394C104.048 245.292 123.428 279.385 124.67 294.056C126.236 312.565 124.672 362.804 124.656 363.309L133.839 363.6C133.904 361.515 135.436 312.32 133.824 293.282C133.106 284.793 127.912 271.264 118.386 253.07C113.94 244.578 109.623 237.122 107.01 232.723C108.817 226.869 114.368 222.121 120.475 221.53C122.334 221.35 124.221 221.559 126.026 222.088C125.347 222.958 124.752 223.891 124.25 224.874C121.151 230.949 122.446 238.577 127.261 242.618C130.113 245.01 134.257 245.892 138.077 244.915C141.635 244.005 144.385 241.667 145.621 238.5C146.732 235.653 146.638 232.367 145.341 228.733C144.589 226.643 143.545 224.67 142.24 222.872C145.707 222.204 149.286 222.4 152.66 223.442C151.347 224.954 150.342 226.637 149.682 228.461C148.27 232.367 148.894 237.008 151.311 240.575C153.394 243.65 156.56 245.477 159.999 245.591C160.115 245.595 160.229 245.597 160.344 245.597C163.356 245.597 166.216 244.301 168.43 241.924C171.031 239.132 172.355 235.256 171.97 231.555C171.726 229.202 170.889 226.9 169.542 224.766C178.91 223.064 188.074 226.229 192.038 231.033C189.646 235.014 184.733 243.367 179.652 253.072C170.127 271.266 164.931 284.795 164.214 293.283C162.603 312.321 164.134 361.516 164.199 363.601L173.382 363.311C173.366 362.806 171.802 312.569 173.368 294.058C174.485 280.85 190.298 251.913 198.815 237.587ZM137.062 235.159C136.848 235.707 136.043 235.952 135.801 236.014C134.844 236.258 133.76 236.079 133.166 235.581C131.623 234.286 131.287 231.294 132.433 229.049C132.809 228.325 133.286 227.66 133.849 227.071C135.083 228.471 136.063 230.077 136.687 231.824C137.197 233.248 137.333 234.465 137.062 235.159ZM161.707 235.66C161.439 235.947 160.892 236.419 160.299 236.407C159.663 236.386 159.159 235.78 158.915 235.42C158.155 234.297 157.911 232.72 158.321 231.585C158.794 230.276 159.707 229.205 160.773 228.343C161.96 229.683 162.688 231.125 162.831 232.503C162.941 233.553 162.489 234.821 161.707 235.66Z" fill="#CC0D45"/>
<path d="M194.242 384.203H103.871C98.8182 384.203 94.6838 388.337 94.6838 393.39V398.717C94.6838 403.77 98.8182 407.904 103.871 407.904H133.058C124.356 411.142 115.167 418.841 115.167 427.769V431.352C122.151 439.203 128.656 452.852 141.046 452.852H157.806C167.566 452.852 174.499 442.315 182.946 431.352V427.769C182.946 418.841 174.179 411.142 165.683 407.904H194.242C199.295 407.904 203.429 403.77 203.429 398.717V393.39C203.429 388.337 199.295 384.203 194.242 384.203Z" fill="#6B83A5"/>
<path d="M200.73 384.203H97.3835C92.3304 384.203 88.196 380.068 88.196 375.015V369.689C88.196 364.635 92.3304 360.501 97.3835 360.501H200.73C205.783 360.501 209.917 364.635 209.917 369.689V375.015C209.917 380.068 205.783 384.203 200.73 384.203ZM195.365 422.419V417.092C195.365 412.039 191.231 407.905 186.178 407.905H111.936C106.883 407.905 102.748 412.039 102.748 417.092V422.419C102.748 427.472 106.883 431.606 111.936 431.606H186.178C191.231 431.606 195.365 427.472 195.365 422.419Z" fill="#ABBDDB"/>
<path d="M42.2982 301.816C41.4274 304.415 37.7387 304.415 36.8679 301.816L31.7622 286.563C30.6384 283.209 28.7449 280.163 26.2319 277.664C23.7189 275.165 20.6554 273.283 17.2842 272.167L1.95916 267.088C-0.653055 266.221 -0.653055 262.552 1.95917 261.685L17.2921 256.606C20.6627 255.488 23.7252 253.604 26.2368 251.104C28.7485 248.604 30.6402 245.556 31.7622 242.202L36.8679 226.956C37.0557 226.387 37.4192 225.892 37.9068 225.54C38.3944 225.189 38.981 225 39.583 225C40.1851 225 40.7717 225.189 41.2593 225.54C41.7469 225.892 42.1104 226.387 42.2982 226.956L47.4039 242.21C48.5269 245.563 50.4192 248.609 52.9308 251.107C55.4423 253.606 58.5043 255.489 61.874 256.606L77.2069 261.685C77.7789 261.872 78.277 262.234 78.6302 262.719C78.9833 263.204 79.1735 263.788 79.1735 264.386C79.1735 264.985 78.9833 265.569 78.6302 266.054C78.277 266.539 77.7789 266.901 77.2069 267.088L61.874 272.167C58.5043 273.284 55.4423 275.167 52.9308 277.665C50.4192 280.164 48.5269 283.21 47.4039 286.563L42.2982 301.816ZM72.877 341.971C72.7635 342.312 72.5448 342.609 72.2521 342.819C71.9593 343.03 71.6074 343.143 71.2463 343.143C70.8852 343.143 70.5333 343.03 70.2406 342.819C69.9478 342.609 69.7292 342.312 69.6157 341.971L66.5522 332.82C65.1828 328.741 61.969 325.544 57.8686 324.182L48.6704 321.134C48.3276 321.021 48.0293 320.803 47.8179 320.512C47.6064 320.221 47.4926 319.871 47.4926 319.512C47.4926 319.152 47.6064 318.802 47.8179 318.511C48.0293 318.22 48.3276 318.002 48.6704 317.889L57.8686 314.842C59.8921 314.174 61.7308 313.045 63.2384 311.545C64.7459 310.045 65.8807 308.216 66.5522 306.203L69.6157 297.052C69.7292 296.711 69.9478 296.414 70.2406 296.204C70.5333 295.994 70.8852 295.88 71.2463 295.88C71.6074 295.88 71.9593 295.994 72.2521 296.204C72.5448 296.414 72.7635 296.711 72.877 297.052L75.9404 306.203C76.612 308.216 77.7467 310.045 79.2543 311.545C80.7618 313.045 82.6006 314.174 84.624 314.842L93.8222 317.889C94.165 318.002 94.4633 318.22 94.6748 318.511C94.8862 318.802 95 319.152 95 319.512C95 319.871 94.8862 320.221 94.6748 320.512C94.4633 320.803 94.165 321.021 93.8222 321.134L84.624 324.182C82.6006 324.85 80.7618 325.979 79.2543 327.478C77.7467 328.978 76.612 330.807 75.9404 332.82L72.877 341.971ZM16.9201 350.232C16.8419 350.456 16.6955 350.651 16.5011 350.788C16.3068 350.926 16.0741 351 15.8356 351C15.597 351 15.3644 350.926 15.1701 350.788C14.9757 350.651 14.8293 350.456 14.7511 350.232L12.7088 344.137C11.7985 341.412 9.65334 339.278 6.91446 338.372L0.787623 336.341C0.562231 336.263 0.366781 336.117 0.228457 335.924C0.0901337 335.73 0.0158082 335.499 0.0158082 335.262C0.0158082 335.024 0.0901338 334.793 0.228457 334.6C0.366781 334.406 0.562231 334.261 0.787623 334.183L6.91447 332.151C8.26302 331.702 9.48834 330.948 10.4939 329.948C11.4994 328.947 12.2576 327.728 12.7088 326.387L14.7511 320.291C14.8293 320.067 14.9757 319.873 15.1701 319.735C15.3644 319.597 15.597 319.523 15.8356 319.523C16.0741 319.523 16.3068 319.597 16.5011 319.735C16.6955 319.873 16.8419 320.067 16.9201 320.291L18.9623 326.387C19.4135 327.728 20.1718 328.947 21.1773 329.948C22.1828 330.948 23.4082 331.702 24.7567 332.151L30.8756 334.183C31.101 334.261 31.2965 334.406 31.4348 334.6C31.5731 334.793 31.6475 335.024 31.6475 335.262C31.6475 335.499 31.5731 335.73 31.4348 335.924C31.2965 336.117 31.101 336.263 30.8756 336.341L24.7488 338.372C22.0099 339.278 19.8647 341.412 18.9544 344.137L16.9201 350.232Z" fill="#17E9CA"/>
<path d="M73.2982 120.816C72.4274 123.415 68.7387 123.415 67.8679 120.816L62.7622 105.563C61.6384 102.209 59.7449 99.1626 57.2319 96.6639C54.7189 94.1652 51.6554 92.2832 48.2842 91.167L32.9592 86.0876C30.3469 85.2213 30.3469 81.5515 32.9592 80.6853L48.2921 75.6059C51.6627 74.4879 54.7252 72.6042 57.2368 70.1041C59.7485 67.604 61.6402 64.5563 62.7622 61.2025L67.8679 45.9564C68.0556 45.3873 68.4192 44.8918 68.9068 44.5405C69.3944 44.1892 69.981 44 70.5831 44C71.1851 44 71.7717 44.1892 72.2593 44.5405C72.7469 44.8918 73.1104 45.3873 73.2982 45.9564L78.4039 61.2103C79.5269 64.5627 81.4192 67.6088 83.9308 70.1075C86.4423 72.6061 89.5043 74.4887 92.874 75.6059L108.207 80.6853C108.779 80.8721 109.277 81.2338 109.63 81.7188C109.983 82.2039 110.173 82.7875 110.173 83.3864C110.173 83.9854 109.983 84.569 109.63 85.054C109.277 85.5391 108.779 85.9008 108.207 86.0876L92.874 91.167C89.5043 92.2842 86.4423 94.1667 83.9308 96.6654C81.4192 99.164 79.5269 102.21 78.4039 105.563L73.2982 120.816ZM103.877 160.971C103.763 161.312 103.545 161.609 103.252 161.819C102.959 162.03 102.607 162.143 102.246 162.143C101.885 162.143 101.533 162.03 101.241 161.819C100.948 161.609 100.729 161.312 100.616 160.971L97.5522 151.82C96.1828 147.741 92.969 144.544 88.8686 143.182L79.6704 140.134C79.3276 140.021 79.0293 139.803 78.8179 139.512C78.6064 139.221 78.4926 138.871 78.4926 138.512C78.4926 138.152 78.6064 137.802 78.8179 137.511C79.0293 137.22 79.3276 137.002 79.6704 136.889L88.8686 133.842C90.8921 133.174 92.7308 132.045 94.2384 130.545C95.7459 129.045 96.8807 127.216 97.5522 125.203L100.616 116.052C100.729 115.711 100.948 115.414 101.241 115.204C101.533 114.994 101.885 114.88 102.246 114.88C102.607 114.88 102.959 114.994 103.252 115.204C103.545 115.414 103.763 115.711 103.877 116.052L106.94 125.203C107.612 127.216 108.747 129.045 110.254 130.545C111.762 132.045 113.601 133.174 115.624 133.842L124.822 136.889C125.165 137.002 125.463 137.22 125.675 137.511C125.886 137.802 126 138.152 126 138.512C126 138.871 125.886 139.221 125.675 139.512C125.463 139.803 125.165 140.021 124.822 140.134L115.624 143.182C113.601 143.85 111.762 144.979 110.254 146.478C108.747 147.978 107.612 149.807 106.94 151.82L103.877 160.971ZM47.9201 169.232C47.8419 169.456 47.6955 169.651 47.5011 169.788C47.3068 169.926 47.0741 170 46.8356 170C46.597 170 46.3644 169.926 46.1701 169.788C45.9757 169.651 45.8293 169.456 45.7511 169.232L43.7088 163.137C42.7985 160.412 40.6533 158.278 37.9145 157.372L31.7876 155.341C31.5622 155.263 31.3668 155.117 31.2285 154.924C31.0901 154.73 31.0158 154.499 31.0158 154.262C31.0158 154.024 31.0901 153.793 31.2285 153.6C31.3668 153.406 31.5622 153.261 31.7876 153.183L37.9145 151.151C39.263 150.702 40.4883 149.948 41.4939 148.948C42.4994 147.947 43.2576 146.728 43.7088 145.387L45.7511 139.291C45.8293 139.067 45.9757 138.873 46.1701 138.735C46.3644 138.597 46.597 138.523 46.8356 138.523C47.0741 138.523 47.3068 138.597 47.5011 138.735C47.6955 138.873 47.8419 139.067 47.9201 139.291L49.9623 145.387C50.4135 146.728 51.1718 147.947 52.1773 148.948C53.1828 149.948 54.4082 150.702 55.7567 151.151L61.8756 153.183C62.101 153.261 62.2965 153.406 62.4348 153.6C62.5731 153.793 62.6475 154.024 62.6475 154.262C62.6475 154.499 62.5731 154.73 62.4348 154.924C62.2965 155.117 62.101 155.263 61.8756 155.341L55.7488 157.372C53.0099 158.278 50.8647 160.412 49.9544 163.137L47.9201 169.232Z" fill="white"/>
<path d="M222.465 91.3409C220.953 86.5146 214.546 86.5146 213.034 91.3409L204.166 119.67C202.214 125.897 198.925 131.555 194.561 136.196C190.196 140.836 184.875 144.331 179.02 146.404L152.403 155.837C147.866 157.446 147.866 164.261 152.403 165.87L179.034 175.303C184.888 177.38 190.207 180.878 194.569 185.521C198.932 190.164 202.217 195.824 204.166 202.053L213.034 230.367C213.36 231.424 213.991 232.344 214.838 232.996C215.685 233.649 216.704 234 217.749 234C218.795 234 219.814 233.649 220.661 232.996C221.508 232.344 222.139 231.424 222.465 230.367L231.333 202.038C233.284 195.812 236.57 190.155 240.932 185.515C245.295 180.874 250.613 177.378 256.465 175.303L283.096 165.87C284.09 165.523 284.955 164.852 285.568 163.951C286.182 163.05 286.512 161.966 286.512 160.854C286.512 159.741 286.182 158.658 285.568 157.757C284.955 156.856 284.09 156.184 283.096 155.837L256.465 146.404C250.613 144.329 245.295 140.833 240.932 136.193C236.57 131.553 233.284 125.895 231.333 119.67L222.465 91.3409ZM275.576 16.7677C275.379 16.1343 274.999 15.5832 274.49 15.1925C273.982 14.8019 273.371 14.5917 272.744 14.5917C272.116 14.5917 271.505 14.8019 270.997 15.1925C270.488 15.5832 270.109 16.1343 269.911 16.7677L264.591 33.762C262.212 41.3378 256.63 47.2755 249.509 49.8057L233.533 55.4656C232.937 55.6753 232.419 56.0793 232.052 56.6201C231.685 57.161 231.487 57.8112 231.487 58.4783C231.487 59.1455 231.685 59.7957 232.052 60.3366C232.419 60.8774 232.937 61.2814 233.533 61.4911L249.509 67.151C253.023 68.3918 256.217 70.4883 258.835 73.2736C261.453 76.059 263.424 79.4562 264.591 83.1947L269.911 100.189C270.109 100.822 270.488 101.374 270.997 101.764C271.505 102.155 272.116 102.365 272.744 102.365C273.371 102.365 273.982 102.155 274.49 101.764C274.999 101.374 275.379 100.822 275.576 100.189L280.896 83.1947C282.063 79.4562 284.034 76.059 286.652 73.2736C289.271 70.4883 292.464 68.3918 295.979 67.151L311.954 61.4911C312.55 61.2814 313.068 60.8774 313.435 60.3366C313.802 59.7957 314 59.1455 314 58.4783C314 57.8112 313.802 57.161 313.435 56.6201C313.068 56.0793 312.55 55.6753 311.954 55.4656L295.979 49.8057C292.464 48.5649 289.271 46.4684 286.652 43.6831C284.034 40.8977 282.063 37.5005 280.896 33.762L275.576 16.7677ZM178.387 1.42598C178.252 1.00955 177.997 0.648454 177.66 0.392891C177.322 0.137328 176.918 0 176.504 0C176.09 0 175.686 0.137328 175.348 0.392891C175.01 0.648454 174.756 1.00955 174.62 1.42598L171.073 12.7458C169.492 17.806 165.766 21.7694 161.009 23.4513L150.368 27.2246C149.977 27.369 149.637 27.6395 149.397 27.9986C149.157 28.3577 149.027 28.7875 149.027 29.2282C149.027 29.669 149.157 30.0988 149.397 30.4579C149.637 30.8169 149.977 31.0875 150.368 31.2319L161.009 35.0051C163.352 35.8387 165.48 37.2397 167.226 39.0975C168.973 40.9552 170.29 43.2191 171.073 45.7107L174.62 57.0305C174.756 57.4469 175.01 57.808 175.348 58.0636C175.686 58.3191 176.09 58.4564 176.504 58.4564C176.918 58.4564 177.322 58.3191 177.66 58.0636C177.997 57.808 178.252 57.4469 178.387 57.0305L181.935 45.7107C182.718 43.2191 184.035 40.9552 185.782 39.0975C187.528 37.2397 189.656 35.8387 191.999 35.0051L202.626 31.2319C203.018 31.0875 203.357 30.8169 203.597 30.4579C203.838 30.0988 203.967 29.669 203.967 29.2282C203.967 28.7875 203.838 28.3577 203.597 27.9986C203.357 27.6395 203.018 27.369 202.626 27.2246L191.985 23.4513C187.228 21.7694 183.502 17.806 181.921 12.7458L178.387 1.42598Z" fill="#CF0E47"/>
</svg>
