<svg width="485" height="448" viewBox="0 0 485 448" fill="none" xmlns="http://www.w3.org/2000/svg">
<path d="M466.279 117.103C456.425 114.723 446.952 114.741 437.722 116.231C408.419 120.96 381.513 140.523 352.211 145.254C344.862 146.44 337.368 146.693 329.642 145.548C328.775 145.42 327.927 145.43 327.118 145.561C323.024 146.222 319.957 149.968 320.667 154.367L332.853 229.844C333.338 232.849 335.518 235.419 338.466 236.129C348.32 238.512 357.793 238.494 367.024 237.004C396.326 232.273 423.234 212.709 452.536 207.978C459.885 206.792 467.38 206.539 475.105 207.684C475.973 207.812 476.821 207.802 477.629 207.671C481.724 207.01 484.79 203.264 484.08 198.865L471.895 123.39C471.407 120.384 469.228 117.816 466.279 117.103ZM332.909 157.617C337.889 158.043 342.982 157.838 348.173 157.332C347.903 164.55 342.606 170.812 335.231 172.003L332.909 157.617ZM343.855 225.419L342.02 214.052C350.197 212.732 357.86 218.152 359.535 226.212C354.106 226.647 348.923 226.385 343.855 225.419ZM406.06 199.456C395.547 201.153 385.376 192.301 383.34 179.69C381.304 167.076 388.175 155.476 398.685 153.779C409.196 152.082 419.368 160.931 421.405 173.545C423.442 186.161 416.568 197.76 406.06 199.456ZM471.836 195.618C467.5 195.246 463.078 195.36 458.589 195.696C458.984 189.266 463.37 183.725 469.619 181.886L471.836 195.618ZM462.768 139.447C455.269 139.703 448.576 134.488 447.126 126.947C451.858 126.713 456.427 126.966 460.89 127.816L462.768 139.447Z" fill="#3A998B"/>
<path d="M414.332 56.2359C403.527 50.3127 392.406 47.3253 381.102 46.1418C345.219 42.3821 307.437 56.7902 271.553 53.0333C262.554 52.0911 253.68 50.0075 244.98 46.2103C244.002 45.784 243.004 45.5263 242.014 45.4226C237 44.8977 232.212 48.3195 231.648 53.7063L221.971 146.135C221.586 149.814 223.327 153.522 226.561 155.292C237.366 161.218 248.486 164.206 259.79 165.389C295.674 169.146 333.459 154.738 369.342 158.495C378.342 159.437 387.216 161.521 395.916 165.318C396.893 165.744 397.891 166.002 398.882 166.106C403.896 166.631 408.684 163.209 409.248 157.822L418.924 65.3964C419.307 61.7136 417.565 58.0088 414.332 56.2359ZM244.979 61.4078C250.687 63.4898 256.728 64.8674 262.979 65.9224C260.37 74.3054 252.166 79.9703 243.135 79.0247L244.979 61.4078ZM236.286 144.438L237.743 130.518C247.757 131.566 255.027 140.359 254.432 150.349C247.923 149.135 241.925 147.181 236.286 144.438ZM317.518 133.733C304.644 132.386 295.523 118.769 297.14 103.325C298.757 87.8788 310.503 76.4498 323.374 77.7974C336.246 79.145 345.37 92.759 343.753 108.206C342.135 123.655 330.386 135.081 317.518 133.733ZM395.914 150.123C390.943 148.31 385.719 147.038 380.346 146.007C382.851 138.588 389.757 133.48 397.674 133.307L395.914 150.123ZM403.115 81.3363C394.235 79.255 388.039 71.0104 388.733 61.7024C394.36 62.9306 399.64 64.6793 404.606 67.093L403.115 81.3363Z" fill="#17E9CA"/>
<path d="M259.712 114.884L259.517 114.962L259.926 115.144L157.281 358.457L0 288.405L102.646 45.0921L102.782 45.1528L102.704 44.9535L214.923 0L259.712 114.884ZM201.815 31.4556C194.151 28.0419 185.269 31.6001 181.977 39.4026C178.685 47.2052 182.231 56.2975 189.895 59.7112C197.559 63.1247 206.44 59.5671 209.732 51.7647C213.024 43.9622 209.48 34.8694 201.815 31.4556Z" fill="#E82E65"/>
<path d="M69.3433 253.329L81.3651 226.045L84.3414 227.406L109.045 212.917L134.674 224.637L94.3483 246.374L87.8997 243.425L69.3433 253.329ZM42.2612 259.134L79.2764 173.718L102.095 184.153L65.0793 269.569L42.2612 259.134ZM81.4489 277.054L77.8871 245.043L99.8535 235.499L107.574 289.001L81.4489 277.054Z" fill="white"/>
<path d="M112.855 291.416L140.616 227.355L162.773 237.487L157.496 249.665L158.157 249.968C161.266 245.993 164.527 243.536 167.938 242.598C171.377 241.672 174.792 241.984 178.181 243.534C179.174 243.988 180.116 244.518 181.008 245.126C181.94 245.719 182.8 246.362 183.589 247.056L175.076 266.7C174.115 265.794 172.85 264.866 171.281 263.915C169.712 262.964 168.335 262.218 167.15 261.676C164.917 260.655 162.683 260.25 160.446 260.459C158.248 260.654 156.242 261.435 154.427 262.804C152.624 264.145 151.193 266.039 150.132 268.486L135.673 301.851L112.855 291.416Z" fill="white"/>
<path d="M114.598 319.301C142.509 316.5 169.414 320.51 179.378 322.865L187.689 432.868L133.089 447.569C100.439 416.029 107.157 348.915 114.598 319.301Z" fill="white"/>
<path d="M178.867 322.142C183.306 322.908 185.762 327.565 186.435 329.797C198.228 382.117 194.849 422.041 191.685 435.463L133.706 447.676C125.338 443.184 117.651 425.434 114.854 417.12L172.918 408.097C163.439 354.144 172.934 328.313 178.867 322.142Z" fill="#D9D9D9"/>
<path d="M225.715 270.508C210.211 319.132 189.61 330.094 181.247 329.497C167.07 376.318 181.635 410.62 190.689 421.918C199.585 420.407 207.96 423.63 211.035 425.431C240.558 442.717 298.568 443.081 323.882 441.101C344.463 439.575 349.527 417.593 349.487 406.792C364.592 398.733 364.914 377.499 363.187 367.888C375.606 354.795 366.027 339.173 359.686 332.999C375.475 306.265 358.333 294.248 347.789 291.581C326.275 283.804 295.1 284.179 282.201 285.339C278.188 282.106 280.446 274.666 282.077 271.349C330.718 198.478 304.199 181.202 284.859 181.673C281.588 206.505 244.067 251.243 225.715 270.508Z" fill="#FFE8C3"/>
<path d="M262.85 285.212C261.235 279.854 285.371 256.508 297.64 245.505L283.922 269.802C277.525 280.38 281.127 284.769 283.727 285.641C267.313 292.458 262.97 288.196 262.85 285.212Z" fill="#EED2A6"/>
<path d="M344.672 329.812C354.302 315.221 343.737 296.001 337.197 288.523C373.951 293.344 369.612 321.419 359.979 333.089C376.1 348.57 368.789 362.969 363.373 368.595C366.515 394.533 355.549 405.339 349.674 407.499C350.602 442.579 318.463 444.861 302.362 442.505C250.52 442.699 221.574 432.369 213.581 427.179C201.609 420.033 195.405 422.137 190.366 421.902C167.801 396.674 174.669 349.776 180.924 329.481C182.264 329.077 183.497 329.29 185.453 328.993L185.24 330.226C179.638 359.734 199.948 383.557 210.804 391.78C261.738 420.382 312.261 414.585 331.156 408.112C347.57 401.295 342.678 378.144 338.18 367.42C353.676 362.984 348.965 340.5 344.672 329.812Z" fill="#EED2A6"/>
<path d="M108.298 103.816C107.427 106.415 103.739 106.415 102.868 103.816L97.7622 88.5625C96.6384 85.2093 94.7449 82.1626 92.2319 79.6639C89.7189 77.1652 86.6554 75.2832 83.2842 74.167L67.9592 69.0876C65.3469 68.2213 65.3469 64.5515 67.9592 63.6853L83.2921 58.6059C86.6627 57.4879 89.7252 55.6042 92.2368 53.1041C94.7485 50.604 96.6402 47.5563 97.7622 44.2025L102.868 28.9564C103.056 28.3873 103.419 27.8918 103.907 27.5405C104.394 27.1892 104.981 27 105.583 27C106.185 27 106.772 27.1892 107.259 27.5405C107.747 27.8918 108.11 28.3873 108.298 28.9564L113.404 44.2103C114.527 47.5627 116.419 50.6088 118.931 53.1075C121.442 55.6061 124.504 57.4887 127.874 58.6059L143.207 63.6853C143.779 63.8721 144.277 64.2338 144.63 64.7188C144.983 65.2039 145.173 65.7875 145.173 66.3864C145.173 66.9854 144.983 67.569 144.63 68.054C144.277 68.5391 143.779 68.9008 143.207 69.0876L127.874 74.167C124.504 75.2842 121.442 77.1667 118.931 79.6654C116.419 82.164 114.527 85.2102 113.404 88.5625L108.298 103.816ZM138.877 143.971C138.763 144.312 138.545 144.609 138.252 144.819C137.959 145.03 137.607 145.143 137.246 145.143C136.885 145.143 136.533 145.03 136.241 144.819C135.948 144.609 135.729 144.312 135.616 143.971L132.552 134.82C131.183 130.741 127.969 127.544 123.869 126.182L114.67 123.134C114.328 123.021 114.029 122.803 113.818 122.512C113.606 122.221 113.493 121.871 113.493 121.512C113.493 121.152 113.606 120.802 113.818 120.511C114.029 120.22 114.328 120.002 114.67 119.889L123.869 116.842C125.892 116.174 127.731 115.045 129.238 113.545C130.746 112.045 131.881 110.216 132.552 108.203L135.616 99.0521C135.729 98.711 135.948 98.4143 136.241 98.2039C136.533 97.9936 136.885 97.8804 137.246 97.8804C137.607 97.8804 137.959 97.9936 138.252 98.2039C138.545 98.4143 138.763 98.711 138.877 99.0521L141.94 108.203C142.612 110.216 143.747 112.045 145.254 113.545C146.762 115.045 148.601 116.174 150.624 116.842L159.822 119.889C160.165 120.002 160.463 120.22 160.675 120.511C160.886 120.802 161 121.152 161 121.512C161 121.871 160.886 122.221 160.675 122.512C160.463 122.803 160.165 123.021 159.822 123.134L150.624 126.182C148.601 126.85 146.762 127.979 145.254 129.478C143.747 130.978 142.612 132.807 141.94 134.82L138.877 143.971ZM82.9201 152.232C82.8419 152.456 82.6955 152.651 82.5011 152.788C82.3068 152.926 82.0741 153 81.8356 153C81.597 153 81.3644 152.926 81.1701 152.788C80.9757 152.651 80.8293 152.456 80.7511 152.232L78.7088 146.137C77.7985 143.412 75.6533 141.278 72.9145 140.372L66.7876 138.341C66.5622 138.263 66.3668 138.117 66.2285 137.924C66.0901 137.73 66.0158 137.499 66.0158 137.262C66.0158 137.024 66.0901 136.793 66.2285 136.6C66.3668 136.406 66.5622 136.261 66.7876 136.183L72.9145 134.151C74.263 133.702 75.4883 132.948 76.4939 131.948C77.4994 130.947 78.2576 129.728 78.7088 128.387L80.7511 122.291C80.8293 122.067 80.9757 121.873 81.1701 121.735C81.3644 121.597 81.597 121.523 81.8356 121.523C82.0742 121.523 82.3068 121.597 82.5011 121.735C82.6955 121.873 82.8419 122.067 82.9201 122.291L84.9623 128.387C85.4135 129.728 86.1718 130.947 87.1773 131.948C88.1828 132.948 89.4082 133.702 90.7567 134.151L96.8756 136.183C97.101 136.261 97.2965 136.406 97.4348 136.6C97.5731 136.793 97.6475 137.024 97.6475 137.262C97.6475 137.499 97.5731 137.73 97.4348 137.924C97.2965 138.117 97.101 138.263 96.8756 138.341L90.7488 140.372C88.0099 141.278 85.8647 143.412 84.9544 146.137L82.9201 152.232Z" fill="white"/>
<path d="M408.298 255.816C407.427 258.415 403.739 258.415 402.868 255.816L397.762 240.563C396.638 237.209 394.745 234.163 392.232 231.664C389.719 229.165 386.655 227.283 383.284 226.167L367.959 221.088C365.347 220.221 365.347 216.552 367.959 215.685L383.292 210.606C386.663 209.488 389.725 207.604 392.237 205.104C394.748 202.604 396.64 199.556 397.762 196.202L402.868 180.956C403.056 180.387 403.419 179.892 403.907 179.54C404.394 179.189 404.981 179 405.583 179C406.185 179 406.772 179.189 407.259 179.54C407.747 179.892 408.11 180.387 408.298 180.956L413.404 196.21C414.527 199.563 416.419 202.609 418.931 205.107C421.442 207.606 424.504 209.489 427.874 210.606L443.207 215.685C443.779 215.872 444.277 216.234 444.63 216.719C444.983 217.204 445.173 217.788 445.173 218.386C445.173 218.985 444.983 219.569 444.63 220.054C444.277 220.539 443.779 220.901 443.207 221.088L427.874 226.167C424.504 227.284 421.442 229.167 418.931 231.665C416.419 234.164 414.527 237.21 413.404 240.563L408.298 255.816ZM438.877 295.971C438.763 296.312 438.545 296.609 438.252 296.819C437.959 297.03 437.607 297.143 437.246 297.143C436.885 297.143 436.533 297.03 436.241 296.819C435.948 296.609 435.729 296.312 435.616 295.971L432.552 286.82C431.183 282.741 427.969 279.544 423.869 278.182L414.67 275.134C414.328 275.021 414.029 274.803 413.818 274.512C413.606 274.221 413.493 273.871 413.493 273.512C413.493 273.152 413.606 272.802 413.818 272.511C414.029 272.22 414.328 272.002 414.67 271.889L423.869 268.842C425.892 268.174 427.731 267.045 429.238 265.545C430.746 264.045 431.881 262.216 432.552 260.203L435.616 251.052C435.729 250.711 435.948 250.414 436.241 250.204C436.533 249.994 436.885 249.88 437.246 249.88C437.607 249.88 437.959 249.994 438.252 250.204C438.545 250.414 438.763 250.711 438.877 251.052L441.94 260.203C442.612 262.216 443.747 264.045 445.254 265.545C446.762 267.045 448.601 268.174 450.624 268.842L459.822 271.889C460.165 272.002 460.463 272.22 460.675 272.511C460.886 272.802 461 273.152 461 273.512C461 273.871 460.886 274.221 460.675 274.512C460.463 274.803 460.165 275.021 459.822 275.134L450.624 278.182C448.601 278.85 446.762 279.979 445.254 281.478C443.747 282.978 442.612 284.807 441.94 286.82L438.877 295.971ZM382.92 304.232C382.842 304.456 382.695 304.651 382.501 304.788C382.307 304.926 382.074 305 381.836 305C381.597 305 381.364 304.926 381.17 304.788C380.976 304.651 380.829 304.456 380.751 304.232L378.709 298.137C377.799 295.412 375.653 293.278 372.914 292.372L366.788 290.341C366.562 290.263 366.367 290.117 366.228 289.924C366.09 289.73 366.016 289.499 366.016 289.262C366.016 289.024 366.09 288.793 366.228 288.6C366.367 288.406 366.562 288.261 366.788 288.183L372.914 286.151C374.263 285.702 375.488 284.948 376.494 283.948C377.499 282.947 378.258 281.728 378.709 280.387L380.751 274.291C380.829 274.067 380.976 273.873 381.17 273.735C381.364 273.597 381.597 273.523 381.836 273.523C382.074 273.523 382.307 273.597 382.501 273.735C382.695 273.873 382.842 274.067 382.92 274.291L384.962 280.387C385.414 281.728 386.172 282.947 387.177 283.948C388.183 284.948 389.408 285.702 390.757 286.151L396.876 288.183C397.101 288.261 397.296 288.406 397.435 288.6C397.573 288.793 397.647 289.024 397.647 289.262C397.647 289.499 397.573 289.73 397.435 289.924C397.296 290.117 397.101 290.263 396.876 290.341L390.749 292.372C388.01 293.278 385.865 295.412 384.954 298.137L382.92 304.232Z" fill="white"/>
</svg>
