<svg width="587" height="587" viewBox="0 0 587 587" fill="none" xmlns="http://www.w3.org/2000/svg">
<path d="M587 293.5C587 455.596 455.596 587 293.5 587C131.404 587 0 455.596 0 293.5C0 131.404 131.404 0 293.5 0C455.596 0 587 131.404 587 293.5Z" fill="#2E3944"/>
<path d="M517.867 175.68C508.014 173.299 498.541 173.317 489.311 174.808C460.008 179.536 433.102 199.1 403.8 203.83C396.451 205.017 388.956 205.27 381.231 204.125C380.363 203.996 379.516 204.006 378.707 204.137C374.612 204.798 371.546 208.544 372.256 212.943L384.441 288.42C384.927 291.425 387.106 293.995 390.055 294.705C399.909 297.089 409.382 297.07 418.612 295.58C447.915 290.849 474.823 271.285 504.125 266.554C511.474 265.368 518.969 265.115 526.694 266.26C527.561 266.388 528.409 266.378 529.218 266.248C533.313 265.587 536.379 261.84 535.669 257.441L523.484 181.967C522.996 178.96 520.817 176.392 517.867 175.68ZM384.498 216.193C389.478 216.619 394.571 216.415 399.762 215.909C399.492 223.127 394.195 229.389 386.82 230.579L384.498 216.193ZM395.444 283.996L393.609 272.629C401.786 271.308 409.449 276.728 411.124 284.789C405.694 285.224 400.511 284.962 395.444 283.996ZM457.649 258.032C447.136 259.73 436.965 250.878 434.929 238.266C432.893 225.653 439.764 214.052 450.274 212.355C460.785 210.658 470.957 219.508 472.994 232.121C475.03 244.737 468.157 256.336 457.649 258.032ZM523.425 254.194C519.089 253.823 514.667 253.936 510.178 254.273C510.573 247.843 514.958 242.302 521.208 240.463L523.425 254.194ZM514.357 198.023C506.858 198.279 500.165 193.064 498.715 185.524C503.447 185.289 508.016 185.543 512.479 186.392L514.357 198.023Z" fill="#3A998B"/>
<path d="M465.92 114.812C455.116 108.889 443.995 105.902 432.691 104.718C396.808 100.958 359.026 115.367 323.142 111.61C314.143 110.668 305.269 108.584 296.568 104.787C295.591 104.36 294.593 104.103 293.603 103.999C288.589 103.474 283.801 106.896 283.237 112.283L273.56 204.711C273.175 208.391 274.916 212.098 278.15 213.868C288.954 219.795 300.075 222.782 311.379 223.965C347.262 227.722 385.048 213.314 420.931 217.071C429.931 218.014 438.804 220.097 447.505 223.894C448.482 224.321 449.48 224.578 450.471 224.682C455.485 225.207 460.273 221.785 460.837 216.398L470.513 123.973C470.896 120.29 469.154 116.585 465.92 114.812ZM296.568 119.984C302.276 122.066 308.317 123.444 314.568 124.499C311.958 132.882 303.755 138.547 294.723 137.601L296.568 119.984ZM287.875 203.014L289.332 189.094C299.345 190.143 306.616 198.936 306.02 208.925C299.512 207.711 293.514 205.758 287.875 203.014ZM369.107 192.31C356.233 190.962 347.112 177.345 348.728 161.902C350.346 146.455 362.092 135.026 374.963 136.374C387.834 137.721 396.959 151.335 395.342 166.782C393.724 182.231 381.975 193.657 369.107 192.31ZM447.502 208.699C442.532 206.886 437.308 205.615 431.935 204.584C434.44 197.165 441.346 192.056 449.263 191.884L447.502 208.699ZM454.704 139.913C445.824 137.831 439.627 129.587 440.322 120.279C445.949 121.507 451.229 123.256 456.195 125.669L454.704 139.913Z" fill="#17E9CA"/>
<path d="M311.301 173.46L311.106 173.538L311.515 173.72L208.87 417.033L51.5888 346.981L154.235 103.668L154.371 103.729L154.293 103.53L266.512 58.5764L311.301 173.46ZM253.404 90.032C245.74 86.6183 236.857 90.1765 233.566 97.979C230.274 105.782 233.82 114.874 241.484 118.288C249.148 121.701 258.029 118.144 261.321 110.341C264.613 102.539 261.068 93.4458 253.404 90.032Z" fill="#E82E65"/>
<path d="M120.932 311.905L132.954 284.621L135.93 285.982L160.634 271.494L186.263 283.214L145.937 304.95L139.488 302.001L120.932 311.905ZM93.85 317.71L130.865 232.295L153.683 242.73L116.668 328.145L93.85 317.71ZM133.038 335.631L129.476 303.619L151.442 294.075L159.163 347.578L133.038 335.631Z" fill="white"/>
<path d="M164.444 349.993L192.205 285.931L214.362 296.063L209.084 308.242L209.746 308.544C212.855 304.569 216.116 302.113 219.527 301.174C222.966 300.248 226.381 300.56 229.77 302.11C230.762 302.564 231.704 303.095 232.597 303.703C233.529 304.295 234.389 304.939 235.178 305.633L226.665 325.276C225.704 324.37 224.439 323.442 222.87 322.491C221.3 321.541 219.923 320.794 218.738 320.252C216.506 319.232 214.271 318.826 212.034 319.036C209.837 319.23 207.831 320.012 206.016 321.38C204.213 322.721 202.781 324.615 201.721 327.062L187.262 360.427L164.444 349.993Z" fill="white"/>
<path d="M166.186 377.877C194.098 375.077 221.003 379.086 230.966 381.441L239.278 491.445L184.678 506.146C152.028 474.605 158.746 407.492 166.186 377.877Z" fill="white"/>
<path d="M230.456 380.718C234.895 381.484 237.351 386.141 238.023 388.373C249.816 440.694 246.438 480.617 243.274 494.039L185.294 506.252C176.927 501.76 169.24 484.01 166.443 475.697L224.507 466.673C215.027 412.721 224.523 386.89 230.456 380.718Z" fill="#D9D9D9"/>
<path d="M277.304 329.085C261.799 377.709 241.198 388.671 232.836 388.074C218.659 434.895 233.223 469.197 242.278 480.495C251.174 478.983 259.548 482.206 262.624 484.007C292.147 501.294 350.157 501.657 375.471 499.678C396.052 498.151 401.116 476.169 401.076 465.369C416.181 457.31 416.503 436.075 414.775 426.465C427.194 413.371 417.616 397.75 411.275 391.576C427.064 364.842 409.922 352.825 399.377 350.158C377.863 342.381 346.688 342.755 333.79 343.915C329.777 340.683 332.035 333.242 333.665 329.926C382.307 257.055 355.788 239.779 336.448 240.249C333.177 265.081 295.656 309.82 277.304 329.085Z" fill="#FFE8C3"/>
<path d="M314.439 343.788C312.824 338.43 336.959 315.084 349.229 304.081L335.511 328.379C329.113 338.957 332.716 343.346 335.316 344.218C318.902 351.035 314.558 346.772 314.439 343.788Z" fill="#EED2A6"/>
<path d="M396.261 388.388C405.891 373.797 395.325 354.577 388.786 347.099C425.54 351.92 421.201 379.996 411.568 391.666C427.689 407.147 420.378 421.546 414.962 427.171C418.103 453.11 407.138 463.915 401.262 466.075C402.191 501.155 370.051 503.438 353.951 501.082C302.109 501.275 273.163 490.945 265.17 485.756C253.198 478.61 246.993 480.713 241.955 480.478C219.39 455.25 226.258 408.353 232.513 388.057C233.852 387.653 235.085 387.866 237.041 387.569L236.829 388.802C231.227 418.311 251.537 442.134 262.392 450.356C313.327 478.958 363.85 473.161 382.745 466.688C399.159 459.871 394.267 436.72 389.769 425.997C405.264 421.561 400.553 399.076 396.261 388.388Z" fill="#EED2A6"/>
</svg>
