<svg width="485" height="448" viewBox="0 0 485 448" fill="none" xmlns="http://www.w3.org/2000/svg">
<path d="M466.279 117.103C456.425 114.723 446.952 114.741 437.722 116.231C408.419 120.96 381.513 140.523 352.211 145.254C344.862 146.44 337.368 146.693 329.642 145.548C328.775 145.42 327.927 145.43 327.118 145.561C323.024 146.222 319.957 149.968 320.667 154.367L332.853 229.844C333.338 232.849 335.518 235.419 338.466 236.129C348.32 238.512 357.793 238.494 367.024 237.004C396.326 232.273 423.234 212.709 452.536 207.978C459.885 206.792 467.38 206.539 475.105 207.684C475.973 207.812 476.821 207.802 477.629 207.671C481.724 207.01 484.79 203.264 484.08 198.865L471.895 123.39C471.407 120.384 469.228 117.816 466.279 117.103ZM332.909 157.617C337.889 158.043 342.982 157.838 348.173 157.332C347.903 164.55 342.606 170.812 335.231 172.003L332.909 157.617ZM343.855 225.419L342.02 214.052C350.197 212.732 357.86 218.152 359.535 226.212C354.106 226.647 348.923 226.385 343.855 225.419ZM406.06 199.456C395.547 201.153 385.376 192.301 383.34 179.69C381.304 167.076 388.175 155.476 398.685 153.779C409.196 152.082 419.368 160.931 421.405 173.545C423.442 186.161 416.568 197.76 406.06 199.456ZM471.836 195.618C467.5 195.246 463.078 195.36 458.589 195.696C458.984 189.266 463.37 183.725 469.619 181.886L471.836 195.618ZM462.768 139.447C455.269 139.703 448.576 134.488 447.126 126.947C451.858 126.713 456.427 126.966 460.89 127.816L462.768 139.447Z" fill="#3A998B"/>
<path d="M414.332 56.2359C403.527 50.3127 392.406 47.3253 381.102 46.1418C345.219 42.3821 307.437 56.7902 271.553 53.0333C262.554 52.0911 253.68 50.0075 244.98 46.2103C244.002 45.784 243.004 45.5263 242.014 45.4226C237 44.8977 232.212 48.3195 231.648 53.7063L221.971 146.135C221.586 149.814 223.327 153.522 226.561 155.292C237.366 161.218 248.486 164.206 259.79 165.389C295.674 169.146 333.459 154.738 369.342 158.495C378.342 159.437 387.216 161.521 395.916 165.318C396.893 165.744 397.891 166.002 398.882 166.106C403.896 166.631 408.684 163.209 409.248 157.822L418.924 65.3964C419.307 61.7136 417.565 58.0088 414.332 56.2359ZM244.979 61.4078C250.687 63.4898 256.728 64.8674 262.979 65.9224C260.37 74.3054 252.166 79.9703 243.135 79.0247L244.979 61.4078ZM236.286 144.438L237.743 130.518C247.757 131.566 255.027 140.359 254.432 150.349C247.923 149.135 241.925 147.181 236.286 144.438ZM317.518 133.733C304.644 132.386 295.523 118.769 297.14 103.325C298.757 87.8788 310.503 76.4498 323.374 77.7974C336.246 79.145 345.37 92.759 343.753 108.206C342.135 123.655 330.386 135.081 317.518 133.733ZM395.914 150.123C390.943 148.31 385.719 147.038 380.346 146.007C382.851 138.588 389.757 133.48 397.674 133.307L395.914 150.123ZM403.115 81.3363C394.235 79.255 388.039 71.0104 388.733 61.7024C394.36 62.9306 399.64 64.6793 404.606 67.093L403.115 81.3363Z" fill="#17E9CA"/>
<path d="M259.712 114.884L259.517 114.962L259.926 115.144L157.281 358.457L0 288.405L102.646 45.0921L102.782 45.1528L102.704 44.9535L214.923 0L259.712 114.884ZM201.815 31.4556C194.151 28.0419 185.269 31.6001 181.977 39.4026C178.685 47.2052 182.231 56.2975 189.895 59.7112C197.559 63.1247 206.44 59.5671 209.732 51.7647C213.024 43.9622 209.48 34.8694 201.815 31.4556Z" fill="#E82E65"/>
<path d="M69.3433 253.329L81.3651 226.045L84.3414 227.406L109.045 212.917L134.674 224.637L94.3483 246.374L87.8997 243.425L69.3433 253.329ZM42.2612 259.134L79.2764 173.718L102.095 184.153L65.0793 269.569L42.2612 259.134ZM81.4489 277.054L77.8871 245.043L99.8535 235.499L107.574 289.001L81.4489 277.054Z" fill="white"/>
<path d="M112.855 291.416L140.616 227.355L162.773 237.487L157.496 249.665L158.157 249.968C161.266 245.993 164.527 243.536 167.938 242.598C171.377 241.672 174.792 241.984 178.181 243.534C179.174 243.988 180.116 244.518 181.008 245.126C181.94 245.719 182.8 246.362 183.589 247.056L175.076 266.7C174.115 265.794 172.85 264.866 171.281 263.915C169.712 262.964 168.335 262.218 167.15 261.676C164.917 260.655 162.683 260.25 160.446 260.459C158.248 260.654 156.242 261.435 154.427 262.804C152.624 264.145 151.193 266.039 150.132 268.486L135.673 301.851L112.855 291.416Z" fill="white"/>
<path d="M114.598 319.301C142.509 316.5 169.414 320.51 179.378 322.865L187.689 432.868L133.089 447.569C100.439 416.029 107.157 348.915 114.598 319.301Z" fill="white"/>
<path d="M178.867 322.142C183.306 322.908 185.762 327.565 186.435 329.797C198.228 382.117 194.849 422.041 191.685 435.463L133.706 447.676C125.338 443.184 117.651 425.434 114.854 417.12L172.918 408.097C163.439 354.144 172.934 328.313 178.867 322.142Z" fill="#D9D9D9"/>
<path d="M225.715 270.508C210.211 319.132 189.61 330.094 181.247 329.497C167.07 376.318 181.635 410.62 190.689 421.918C199.585 420.407 207.96 423.63 211.035 425.431C240.558 442.717 298.568 443.081 323.882 441.101C344.463 439.575 349.527 417.593 349.487 406.792C364.592 398.733 364.914 377.499 363.187 367.888C375.606 354.795 366.027 339.173 359.686 332.999C375.475 306.265 358.333 294.248 347.789 291.581C326.275 283.804 295.1 284.179 282.201 285.339C278.188 282.106 280.446 274.666 282.077 271.349C330.718 198.478 304.199 181.202 284.859 181.673C281.588 206.505 244.067 251.243 225.715 270.508Z" fill="#FFE8C3"/>
<path d="M262.85 285.212C261.235 279.854 285.371 256.508 297.64 245.505L283.922 269.802C277.525 280.38 281.127 284.769 283.727 285.641C267.313 292.458 262.97 288.196 262.85 285.212Z" fill="#EED2A6"/>
<path d="M344.672 329.812C354.302 315.221 343.737 296.001 337.197 288.523C373.951 293.344 369.612 321.419 359.979 333.089C376.1 348.57 368.789 362.969 363.373 368.595C366.515 394.533 355.549 405.339 349.674 407.499C350.602 442.579 318.463 444.861 302.362 442.505C250.52 442.699 221.574 432.369 213.581 427.179C201.609 420.033 195.405 422.137 190.366 421.902C167.801 396.674 174.669 349.776 180.924 329.481C182.264 329.077 183.497 329.29 185.453 328.993L185.24 330.226C179.638 359.734 199.948 383.557 210.804 391.78C261.738 420.382 312.261 414.585 331.156 408.112C347.57 401.295 342.678 378.144 338.18 367.42C353.676 362.984 348.965 340.5 344.672 329.812Z" fill="#EED2A6"/>
</svg>
