<svg width="450" height="611" viewBox="0 0 450 611" fill="none" xmlns="http://www.w3.org/2000/svg">
<path d="M208.875 548.25H177.792C168.985 548.25 161.608 545.266 155.66 539.298C149.713 533.33 146.729 525.953 146.708 517.167C146.688 508.38 149.672 501.003 155.66 495.035C161.649 489.067 169.026 486.083 177.792 486.083H208.875V420.808C167.949 413.556 134.399 393.994 108.227 362.123C82.055 330.252 68.9793 293.346 69 251.404C69 204.261 85.7125 164.247 119.137 131.36C152.562 98.4742 192.836 82.0207 239.958 82C287.081 81.9793 327.365 98.4327 360.81 131.36C394.256 164.288 410.958 204.303 410.917 251.404C410.917 293.367 397.831 330.283 371.658 362.154C345.486 394.025 311.947 413.576 271.042 420.808V486.083H302.125C310.932 486.083 318.319 489.067 324.287 495.035C330.255 501.003 333.229 508.38 333.208 517.167C333.188 525.953 330.204 533.34 324.256 539.329C318.309 545.318 310.932 548.292 302.125 548.25H271.042V579.333C271.042 588.14 268.058 595.528 262.09 601.496C256.122 607.464 248.745 610.437 239.958 610.417C231.172 610.396 223.795 607.412 217.827 601.465C211.859 595.517 208.875 588.14 208.875 579.333V548.25ZM239.958 361.75C270.006 361.75 295.649 351.13 316.89 329.89C338.13 308.649 348.75 283.006 348.75 252.958C348.75 222.911 338.13 197.267 316.89 176.027C295.649 154.787 270.006 144.167 239.958 144.167C209.911 144.167 184.267 154.787 163.027 176.027C141.787 197.267 131.167 222.911 131.167 252.958C131.167 283.006 141.787 308.649 163.027 329.89C184.267 351.13 209.911 361.75 239.958 361.75Z" fill="#CC0D45"/>
<path d="M192.875 544.25H161.792C152.985 544.25 145.608 541.266 139.66 535.298C133.713 529.33 130.729 521.953 130.708 513.167C130.688 504.38 133.672 497.003 139.66 491.035C145.649 485.067 153.026 482.083 161.792 482.083H192.875V416.808C151.949 409.556 118.399 389.994 92.2272 358.123C66.055 326.252 52.9793 289.346 53 247.404C53 200.261 69.7125 160.247 103.137 127.36C136.562 94.4742 176.836 78.0207 223.958 78C271.081 77.9793 311.365 94.4327 344.81 127.36C378.256 160.288 394.958 200.303 394.917 247.404C394.917 289.367 381.831 326.283 355.658 358.154C329.486 390.025 295.947 409.576 255.042 416.808V482.083H286.125C294.932 482.083 302.319 485.067 308.287 491.035C314.255 497.003 317.229 504.38 317.208 513.167C317.188 521.953 314.204 529.34 308.256 535.329C302.309 541.318 294.932 544.292 286.125 544.25H255.042V575.333C255.042 584.14 252.058 591.528 246.09 597.496C240.122 603.464 232.745 606.437 223.958 606.417C215.172 606.396 207.795 603.412 201.827 597.465C195.859 591.517 192.875 584.14 192.875 575.333V544.25ZM223.958 357.75C254.006 357.75 279.649 347.13 300.89 325.89C322.13 304.649 332.75 279.006 332.75 248.958C332.75 218.911 322.13 193.267 300.89 172.027C279.649 150.787 254.006 140.167 223.958 140.167C193.911 140.167 168.267 150.787 147.027 172.027C125.787 193.267 115.167 218.911 115.167 248.958C115.167 279.006 125.787 304.649 147.027 325.89C168.267 347.13 193.911 357.75 223.958 357.75Z" fill="#E82E65"/>
<path d="M145.004 235.027C144.925 238.576 145.97 242.054 147.98 244.928C149.963 247.859 152.826 250.027 156.123 251.096L182.901 260.348C191.15 263.187 198.653 267.964 204.825 274.307C210.99 280.666 215.607 288.456 218.293 297.03L227.689 324.623C228.668 327.936 230.643 330.836 233.326 332.901C236.19 334.917 239.574 335.992 243.036 335.985C246.51 336.139 249.935 335.09 252.77 333.003C255.606 330.917 257.69 327.911 258.696 324.461L267.622 296.706C270.308 288.131 274.924 280.342 281.089 273.982C287.312 267.669 294.796 262.849 303.013 259.861L329.792 250.772C332.962 249.62 335.738 247.532 337.778 244.766C339.834 241.835 340.981 238.325 341.067 234.703C341.215 231.102 340.203 227.552 338.19 224.613C336.177 221.674 333.277 219.514 329.948 218.472L303.013 209.22C294.66 206.422 287.067 201.608 280.86 195.174C274.652 188.741 270.008 180.871 267.309 172.213L258.382 144.782C257.469 141.407 255.527 138.429 252.845 136.293C250.164 134.157 246.887 132.979 243.505 132.933C240.138 132.933 236.834 133.891 233.953 135.693C231.103 137.722 228.91 140.611 227.689 143.971L218.606 172.213C215.907 180.871 211.262 188.741 205.055 195.174C198.847 201.608 191.255 206.422 182.901 209.22L156.279 218.959C153.041 220.059 150.236 222.224 148.293 225.126C146.171 227.96 145.015 231.441 145.004 235.027ZM301.588 131.797C301.612 134.979 302.538 138.083 304.25 140.724C306.101 143.337 308.665 145.316 311.611 146.405L331.342 153.222C336.87 155.203 341.881 158.416 346.062 162.636C350.15 166.957 353.253 172.17 355.145 177.894L361.879 198.02C362.834 201.126 364.763 203.811 367.36 205.649C369.935 207.512 372.99 208.53 376.13 208.571C379.34 208.515 382.456 207.439 385.056 205.487C387.519 203.545 389.372 200.89 390.38 197.858L396.801 177.569C398.685 171.889 401.791 166.727 405.884 162.474C409.894 158.113 414.904 154.874 420.447 153.06L440.022 146.243C443.06 145.252 445.7 143.257 447.539 140.562C448.786 138.539 449.583 136.254 449.875 133.872C450.167 131.49 449.945 129.071 449.226 126.789C448.507 124.507 447.309 122.418 445.717 120.674C444.126 118.93 442.181 117.573 440.022 116.702L420.447 110.048C414.908 108.043 409.877 104.769 405.729 100.469C401.58 96.1693 398.422 90.9547 396.488 85.2138L390.067 65.2495C389.144 62.2576 387.403 59.6076 385.056 57.6209C382.561 55.6728 379.562 54.5423 376.443 54.3746C373.283 54.2866 370.171 55.192 367.517 56.9716C364.904 58.7993 362.885 61.4015 361.722 64.4379L355.145 85.2138C353.211 90.9547 350.052 96.1693 345.904 100.469C341.755 104.769 336.724 108.043 331.185 110.048L311.611 117.027C308.683 118.069 306.157 120.061 304.407 122.708C302.553 125.347 301.565 128.533 301.588 131.797ZM210.933 44.7982C211.074 47.7577 211.995 50.6204 213.595 53.0761C215.224 55.3907 217.531 57.0985 220.172 57.9455L229.881 61.354C231.767 62.0287 233.48 63.1392 234.891 64.6014C236.302 66.0637 237.373 67.8394 238.024 69.7942L241.47 80.0199C242.415 82.5098 243.983 84.6945 246.011 86.35C248.32 88.267 251.196 89.299 254.154 89.2716C256.861 89.0975 259.49 88.2633 261.828 86.8369C264.169 85.0492 265.919 82.5546 266.839 79.6952L270.127 69.6319C270.693 67.6361 271.776 65.8395 273.259 64.4379C274.64 62.9364 276.363 61.8199 278.27 61.1917L287.98 57.9455C290.563 56.9014 292.833 55.165 294.557 52.9138C296.182 50.4812 297.055 47.5946 297.062 44.6359C296.971 41.6669 296.046 38.7899 294.4 36.358C292.714 34.1042 290.427 32.4114 287.823 31.4887L278.27 28.2425C276.342 27.5604 274.579 26.4528 273.103 24.9962C271.697 23.4665 270.629 21.6391 269.971 19.6399L266.682 9.57663C265.743 7.0608 264.255 4.83714 262.297 3.08417C260.051 1.36549 257.401 0.300742 254.624 0.000250199C251.669 -0.0172885 248.777 0.887629 246.324 2.59723C244.117 4.31856 242.388 6.61447 241.313 9.25201L238.024 19.6399C237.366 21.6391 236.298 23.4665 234.892 24.9962C233.436 26.3981 231.735 27.4998 229.881 28.2425L220.015 31.651C217.506 32.6742 215.295 34.3514 213.595 36.5204C211.887 38.9192 210.955 41.8168 210.933 44.7982Z" fill="#17E9CA"/>
<path d="M165.998 413.809C166.041 415.679 165.472 417.511 164.378 419.025C163.299 420.569 161.74 421.711 159.946 422.274L145.372 427.148C140.882 428.643 136.799 431.16 133.439 434.501C130.084 437.851 127.571 441.954 126.109 446.471L120.996 461.007C120.463 462.752 119.388 464.28 117.927 465.368C116.369 466.43 114.527 466.996 112.643 466.992C110.752 467.073 108.888 466.521 107.345 465.421C105.802 464.322 104.667 462.739 104.12 460.921L99.2616 446.3C97.7998 441.783 95.2872 437.68 91.9317 434.33C88.5447 431.004 84.4714 428.465 79.9994 426.891L65.4248 422.103C63.6994 421.496 62.1885 420.396 61.078 418.939C59.959 417.395 59.3347 415.546 59.2882 413.638C59.2074 411.741 59.7582 409.871 60.8539 408.323C61.9496 406.775 63.5278 405.637 65.3396 405.088L79.9994 400.214C84.5458 398.74 88.6782 396.204 92.0567 392.815C95.4352 389.426 97.963 385.28 99.4321 380.719L104.29 366.269C104.787 364.491 105.844 362.922 107.304 361.797C108.763 360.672 110.547 360.051 112.387 360.027C114.22 360.027 116.018 360.532 117.586 361.481C119.138 362.55 120.331 364.072 120.996 365.842L125.939 380.719C127.408 385.28 129.936 389.426 133.314 392.815C136.693 396.204 140.825 398.74 145.372 400.214L159.861 405.344C161.624 405.924 163.15 407.065 164.208 408.593C165.362 410.086 165.992 411.92 165.998 413.809ZM80.775 359.429C80.7619 361.105 80.2581 362.74 79.326 364.132C78.3186 365.508 76.9234 366.55 75.3202 367.124L64.581 370.715C61.5724 371.759 58.845 373.451 56.5693 375.675C54.3448 377.95 52.6557 380.697 51.6259 383.712L47.9609 394.314C47.4413 395.95 46.3912 397.365 44.9778 398.333C43.5766 399.314 41.9137 399.851 40.2049 399.872C38.4578 399.843 36.7618 399.276 35.3467 398.247C34.0062 397.225 32.9978 395.826 32.4488 394.229L28.9544 383.541C27.929 380.548 26.2385 377.829 24.0109 375.589C21.8281 373.292 19.1013 371.586 16.0844 370.63L5.43053 367.039C3.77737 366.517 2.34033 365.465 1.33943 364.046C0.660993 362.98 0.226721 361.776 0.0679042 360.522C-0.0909127 359.267 0.0296819 357.993 0.420997 356.791C0.812312 355.588 1.4646 354.488 2.33086 353.569C3.19712 352.651 4.25577 351.936 5.43053 351.477L16.0844 347.971C19.099 346.916 21.8373 345.191 24.0951 342.926C26.353 340.661 28.0722 337.914 29.1248 334.889L32.6193 324.372C33.1217 322.796 34.0691 321.4 35.3467 320.354C36.7043 319.328 38.3368 318.732 40.0344 318.644C41.7543 318.597 43.448 319.074 44.8926 320.012C46.3144 320.975 47.4135 322.345 48.0462 323.945L51.6259 334.889C52.6785 337.914 54.3977 340.661 56.6556 342.926C58.9134 345.191 61.6517 346.916 64.6663 347.971L75.3202 351.648C76.9136 352.197 78.2883 353.247 79.2408 354.641C80.2496 356.031 80.7874 357.709 80.775 359.429ZM130.115 313.599C130.038 315.158 129.537 316.666 128.666 317.96C127.78 319.179 126.524 320.079 125.087 320.525L119.802 322.32C118.776 322.676 117.843 323.261 117.076 324.031C116.308 324.801 115.725 325.737 115.37 326.767L113.495 332.153C112.981 333.465 112.128 334.616 111.024 335.488C109.767 336.498 108.201 337.041 106.592 337.027C105.118 336.935 103.687 336.496 102.415 335.744C101.141 334.803 100.188 333.489 99.6878 331.982L97.8979 326.681C97.5901 325.63 97.0005 324.683 96.1933 323.945C95.4419 323.154 94.5039 322.566 93.4659 322.235L88.1816 320.525C86.7754 319.975 85.5401 319.06 84.6019 317.874C83.7176 316.593 83.242 315.072 83.2382 313.514C83.2877 311.95 83.7913 310.434 84.6871 309.153C85.6051 307.966 86.8495 307.074 88.2668 306.588L93.4659 304.878C94.5157 304.518 95.4753 303.935 96.2785 303.168C97.0434 302.362 97.625 301.399 97.9832 300.346L99.773 295.045C100.284 293.72 101.094 292.548 102.16 291.625C103.382 290.719 104.824 290.158 106.336 290C107.944 289.991 109.518 290.468 110.853 291.368C112.055 292.275 112.995 293.484 113.58 294.874L115.37 300.346C115.729 301.399 116.31 302.362 117.075 303.168C117.868 303.906 118.793 304.487 119.802 304.878L125.172 306.673C126.537 307.212 127.741 308.096 128.666 309.238C129.596 310.502 130.103 312.029 130.115 313.599Z" fill="#17E9CA"/>
<path d="M187.349 237.848V227.672L221.045 210.584V220.76L187.349 237.848ZM221.045 254.936L187.349 237.848V227.672L221.045 244.76V254.936Z" fill="black"/>
<path d="M226.337 263L246.113 194.84H255.618L235.842 263H226.337Z" fill="black"/>
<path d="M294.638 237.848L260.943 220.76V210.584L294.638 227.672V237.848ZM260.943 254.936V244.76L294.638 227.672V237.848L260.943 254.936Z" fill="black"/>
<path d="M84.1744 417.424V412.336L101.022 403.792V408.88L84.1744 417.424ZM101.022 425.968L84.1744 417.424V412.336L101.022 420.88V425.968Z" fill="black"/>
<path d="M103.669 430L113.557 395.92H118.309L108.421 430H103.669Z" fill="black"/>
<path d="M137.819 417.424L120.971 408.88V403.792L137.819 412.336V417.424ZM120.971 425.968V420.88L137.819 412.336V417.424L120.971 425.968Z" fill="black"/>
<path d="M349.174 133.424V128.336L366.022 119.792V124.88L349.174 133.424ZM366.022 141.968L349.174 133.424V128.336L366.022 136.88V141.968Z" fill="black"/>
<path d="M368.669 146L378.557 111.92H383.309L373.421 146H368.669Z" fill="black"/>
<path d="M402.819 133.424L385.971 124.88V119.792L402.819 128.336V133.424ZM385.971 141.968V136.88L402.819 128.336V133.424L385.971 141.968Z" fill="black"/>
<path d="M47.2982 259.816C46.4274 262.415 42.7387 262.415 41.8679 259.816L36.7622 244.563C35.6384 241.209 33.7449 238.163 31.2319 235.664C28.7189 233.165 25.6554 231.283 22.2842 230.167L6.95917 225.088C4.34695 224.221 4.34695 220.552 6.95917 219.685L22.2921 214.606C25.6627 213.488 28.7252 211.604 31.2368 209.104C33.7485 206.604 35.6402 203.556 36.7622 200.202L41.8679 184.956C42.0557 184.387 42.4192 183.892 42.9068 183.54C43.3944 183.189 43.981 183 44.5831 183C45.1851 183 45.7717 183.189 46.2593 183.54C46.7469 183.892 47.1105 184.387 47.2982 184.956L52.4039 200.21C53.5269 203.563 55.4192 206.609 57.9308 209.107C60.4424 211.606 63.5043 213.489 66.874 214.606L82.2069 219.685C82.7789 219.872 83.277 220.234 83.6302 220.719C83.9833 221.204 84.1735 221.788 84.1735 222.386C84.1735 222.985 83.9833 223.569 83.6302 224.054C83.277 224.539 82.7789 224.901 82.2069 225.088L66.874 230.167C63.5043 231.284 60.4423 233.167 57.9308 235.665C55.4192 238.164 53.5269 241.21 52.4039 244.563L47.2982 259.816ZM77.877 299.971C77.7635 300.312 77.5448 300.609 77.2521 300.819C76.9593 301.03 76.6074 301.143 76.2463 301.143C75.8852 301.143 75.5333 301.03 75.2406 300.819C74.9478 300.609 74.7292 300.312 74.6157 299.971L71.5522 290.82C70.1828 286.741 66.969 283.544 62.8686 282.182L53.6704 279.134C53.3276 279.021 53.0293 278.803 52.8179 278.512C52.6064 278.221 52.4926 277.871 52.4926 277.512C52.4926 277.152 52.6064 276.802 52.8179 276.511C53.0293 276.22 53.3276 276.002 53.6704 275.889L62.8686 272.842C64.8921 272.174 66.7308 271.045 68.2384 269.545C69.7459 268.045 70.8807 266.216 71.5522 264.203L74.6157 255.052C74.7292 254.711 74.9478 254.414 75.2406 254.204C75.5333 253.994 75.8852 253.88 76.2463 253.88C76.6074 253.88 76.9593 253.994 77.2521 254.204C77.5448 254.414 77.7635 254.711 77.877 255.052L80.9404 264.203C81.612 266.216 82.7467 268.045 84.2543 269.545C85.7618 271.045 87.6006 272.174 89.6241 272.842L98.8222 275.889C99.165 276.002 99.4633 276.22 99.6748 276.511C99.8862 276.802 100 277.152 100 277.512C100 277.871 99.8862 278.221 99.6748 278.512C99.4633 278.803 99.165 279.021 98.8222 279.134L89.6241 282.182C87.6006 282.85 85.7618 283.979 84.2543 285.478C82.7467 286.978 81.612 288.807 80.9404 290.82L77.877 299.971ZM21.9201 308.232C21.8419 308.456 21.6955 308.651 21.5011 308.788C21.3068 308.926 21.0742 309 20.8356 309C20.597 309 20.3644 308.926 20.1701 308.788C19.9757 308.651 19.8293 308.456 19.7511 308.232L17.7088 302.137C16.7985 299.412 14.6533 297.278 11.9145 296.372L5.78763 294.341C5.56224 294.263 5.36679 294.117 5.22846 293.924C5.09014 293.73 5.01581 293.499 5.01581 293.262C5.01581 293.024 5.09014 292.793 5.22846 292.6C5.36679 292.406 5.56224 292.261 5.78763 292.183L11.9145 290.151C13.263 289.702 14.4883 288.948 15.4939 287.948C16.4994 286.947 17.2576 285.728 17.7088 284.387L19.7511 278.291C19.8293 278.067 19.9757 277.873 20.1701 277.735C20.3644 277.597 20.597 277.523 20.8356 277.523C21.0742 277.523 21.3068 277.597 21.5011 277.735C21.6955 277.873 21.8419 278.067 21.9201 278.291L23.9624 284.387C24.4136 285.728 25.1718 286.947 26.1773 287.948C27.1828 288.948 28.4082 289.702 29.7567 290.151L35.8756 292.183C36.101 292.261 36.2965 292.406 36.4348 292.6C36.5731 292.793 36.6475 293.024 36.6475 293.262C36.6475 293.499 36.5731 293.73 36.4348 293.924C36.2965 294.117 36.101 294.263 35.8756 294.341L29.7488 296.372C27.0099 297.278 24.8647 299.412 23.9544 302.137L21.9201 308.232Z" fill="white"/>
<path d="M347.298 396.816C346.427 399.415 342.739 399.415 341.868 396.816L336.762 381.563C335.638 378.209 333.745 375.163 331.232 372.664C328.719 370.165 325.655 368.283 322.284 367.167L306.959 362.088C304.347 361.221 304.347 357.552 306.959 356.685L322.292 351.606C325.663 350.488 328.725 348.604 331.237 346.104C333.748 343.604 335.64 340.556 336.762 337.202L341.868 321.956C342.056 321.387 342.419 320.892 342.907 320.54C343.394 320.189 343.981 320 344.583 320C345.185 320 345.772 320.189 346.259 320.54C346.747 320.892 347.11 321.387 347.298 321.956L352.404 337.21C353.527 340.563 355.419 343.609 357.931 346.107C360.442 348.606 363.504 350.489 366.874 351.606L382.207 356.685C382.779 356.872 383.277 357.234 383.63 357.719C383.983 358.204 384.173 358.788 384.173 359.386C384.173 359.985 383.983 360.569 383.63 361.054C383.277 361.539 382.779 361.901 382.207 362.088L366.874 367.167C363.504 368.284 360.442 370.167 357.931 372.665C355.419 375.164 353.527 378.21 352.404 381.563L347.298 396.816ZM377.877 436.971C377.763 437.312 377.545 437.609 377.252 437.819C376.959 438.03 376.607 438.143 376.246 438.143C375.885 438.143 375.533 438.03 375.241 437.819C374.948 437.609 374.729 437.312 374.616 436.971L371.552 427.82C370.183 423.741 366.969 420.544 362.869 419.182L353.67 416.134C353.328 416.021 353.029 415.803 352.818 415.512C352.606 415.221 352.493 414.871 352.493 414.512C352.493 414.152 352.606 413.802 352.818 413.511C353.029 413.22 353.328 413.002 353.67 412.889L362.869 409.842C364.892 409.174 366.731 408.045 368.238 406.545C369.746 405.045 370.881 403.216 371.552 401.203L374.616 392.052C374.729 391.711 374.948 391.414 375.241 391.204C375.533 390.994 375.885 390.88 376.246 390.88C376.607 390.88 376.959 390.994 377.252 391.204C377.545 391.414 377.763 391.711 377.877 392.052L380.94 401.203C381.612 403.216 382.747 405.045 384.254 406.545C385.762 408.045 387.601 409.174 389.624 409.842L398.822 412.889C399.165 413.002 399.463 413.22 399.675 413.511C399.886 413.802 400 414.152 400 414.512C400 414.871 399.886 415.221 399.675 415.512C399.463 415.803 399.165 416.021 398.822 416.134L389.624 419.182C387.601 419.85 385.762 420.979 384.254 422.478C382.747 423.978 381.612 425.807 380.94 427.82L377.877 436.971ZM321.92 445.232C321.842 445.456 321.695 445.651 321.501 445.788C321.307 445.926 321.074 446 320.836 446C320.597 446 320.364 445.926 320.17 445.788C319.976 445.651 319.829 445.456 319.751 445.232L317.709 439.137C316.799 436.412 314.653 434.278 311.914 433.372L305.788 431.341C305.562 431.263 305.367 431.117 305.228 430.924C305.09 430.73 305.016 430.499 305.016 430.262C305.016 430.024 305.09 429.793 305.228 429.6C305.367 429.406 305.562 429.261 305.788 429.183L311.914 427.151C313.263 426.702 314.488 425.948 315.494 424.948C316.499 423.947 317.258 422.728 317.709 421.387L319.751 415.291C319.829 415.067 319.976 414.873 320.17 414.735C320.364 414.597 320.597 414.523 320.836 414.523C321.074 414.523 321.307 414.597 321.501 414.735C321.695 414.873 321.842 415.067 321.92 415.291L323.962 421.387C324.414 422.728 325.172 423.947 326.177 424.948C327.183 425.948 328.408 426.702 329.757 427.151L335.876 429.183C336.101 429.261 336.296 429.406 336.435 429.6C336.573 429.793 336.647 430.024 336.647 430.262C336.647 430.499 336.573 430.73 336.435 430.924C336.296 431.117 336.101 431.263 335.876 431.341L329.749 433.372C327.01 434.278 324.865 436.412 323.954 439.137L321.92 445.232Z" fill="white"/>
</svg>
