<svg width="352" height="339" viewBox="0 0 352 339" fill="none" xmlns="http://www.w3.org/2000/svg">
<path d="M114.742 39.8716L24.5042 23.7828C20.6634 23.0697 16.699 23.4649 13.0745 24.9222C9.45009 26.3794 6.31545 28.8385 4.03723 32.0118C1.64299 35.2272 0.249347 39.0768 0.0304397 43.0797C-0.188468 47.0826 0.777062 51.0612 2.80639 54.5185L159.316 328.467C161.14 331.66 163.78 334.311 166.964 336.151C170.148 337.99 173.764 338.952 177.441 338.938C181.119 338.923 184.726 337.934 187.896 336.069C191.066 334.205 193.685 331.533 195.485 328.326L348.969 54.413C357.585 39.0276 344.363 20.7057 327.131 23.8356L246.705 38.1308L243.083 51.3887L329.346 36.0736C330.899 35.7947 332.499 35.9622 333.96 36.5566C335.422 37.151 336.684 38.148 337.601 39.4315C338.518 40.7151 339.052 42.2326 339.141 43.8077C339.23 45.3827 338.87 46.9506 338.103 48.3292L184.636 322.242C183.792 323.768 182.487 324.987 180.908 325.726C179.328 326.465 177.556 326.686 175.844 326.357C174.649 326.143 173.516 325.667 172.525 324.965C171.534 324.263 170.71 323.352 170.112 322.295L13.585 48.3467C12.806 46.9698 12.4349 45.3995 12.5153 43.8195C12.5956 42.2395 13.124 40.715 14.0386 39.4242C14.9533 38.1333 16.2164 37.1295 17.6805 36.5299C19.1445 35.9304 20.749 35.7599 22.3063 36.0384L112.562 52.1447L113.863 52.3733L114.742 39.8716Z" fill="#E82E65"/>
<path d="M230.3 50.9491L233.148 40.5222L222.598 42.4036L230.3 50.9491ZM126.91 42.0519L135.93 43.6344L126.4 51.1425L126.91 42.0519Z" fill="black"/>
<path d="M238.247 0.0804929L130.989 22.2355C130.116 22.4181 129.334 22.8963 128.773 23.5894C128.199 24.3009 127.861 25.1736 127.806 26.0862L121.213 143.631C121.171 144.267 121.275 144.905 121.515 145.496C121.756 146.087 122.127 146.615 122.602 147.042C123.054 147.464 123.605 147.766 124.204 147.919C124.803 148.073 125.431 148.073 126.03 147.921L155.887 140.642C158.7 139.973 161.197 142.576 160.634 145.53L151.755 191.352C151.157 194.447 153.9 197.084 156.766 196.17L175.211 190.262C178.059 189.347 180.82 191.985 180.205 195.08L166.12 267.048C165.241 271.567 170.903 274.011 173.277 270.16L174.859 267.576L262.248 83.5837C263.725 80.5067 261.194 76.99 257.993 77.6406L227.258 83.9002C224.356 84.4981 221.912 81.6496 222.721 78.678L242.766 5.30274C243.593 2.31357 241.131 -0.517341 238.247 0.0804929Z" fill="#E82E65"/>
</svg>
