<svg width="241" height="129" viewBox="0 0 241 129" fill="none" xmlns="http://www.w3.org/2000/svg">
<path d="M72.6661 128.995H60.7804C55.1871 128.995 50.6192 128.576 47.0768 127.737C43.581 126.944 40.831 125.499 38.8267 123.402C36.8691 121.304 35.5174 118.461 34.7716 114.872C34.0724 111.33 33.7229 106.785 33.7229 101.238V89.6324C33.7229 87.2552 33.3733 85.1111 32.6741 83.2001C32.0216 81.2891 31.0894 79.5645 29.8775 78.0263C28.7122 76.4415 27.2906 75.0432 25.6126 73.8313C23.9346 72.6195 22.0935 71.5241 20.0892 70.5453V59.4286C22.0935 58.4498 23.9346 57.3545 25.6126 56.1426C27.2906 54.9307 28.7122 53.5557 29.8775 52.0175C31.0894 50.4794 32.0216 48.7781 32.6741 46.9137C33.3733 45.0026 33.7229 42.8586 33.7229 40.4814V27.8965C33.7229 22.3965 34.0724 17.8519 34.7716 14.2629C35.5174 10.6739 36.8691 7.85393 38.8267 5.80306C40.831 3.75219 43.581 2.33056 47.0768 1.53818C50.6192 0.69919 55.1871 0.279694 60.7804 0.279694H72.6661V12.3052C70.0093 12.8646 67.7487 13.4006 65.8842 13.9133C64.0198 14.3794 62.4816 15.1019 61.2698 16.0807C60.0579 17.0595 59.1723 18.4112 58.613 20.1358C58.0536 21.8604 57.774 24.2609 57.774 27.3372V37.475C57.774 41.1573 57.3545 44.6997 56.5155 48.1022C55.7231 51.5048 54.418 54.4879 52.6002 57.0515C50.7824 59.5685 48.4052 61.5727 45.4687 63.0643C42.5323 64.5092 38.9433 65.1385 34.7017 64.952C39.1297 65.0452 42.8119 65.791 45.7484 67.1893C48.7315 68.5876 51.1086 70.522 52.8798 72.9924C54.6511 75.4161 55.9095 78.306 56.6553 81.6619C57.4011 84.9713 57.774 88.5836 57.774 92.4989V101.938C57.774 105.48 57.9837 108.207 58.4032 110.118C58.8227 112.029 59.5918 113.474 60.7104 114.453C61.8291 115.385 63.3439 116.014 65.255 116.34C67.2126 116.713 69.683 117.109 72.6661 117.529V128.995Z" fill="#EE4C7C"/>
<path d="M20.7651 128.855H1.52588e-05V0H20.7651V128.855Z" fill="#EE4C7C"/>
<path d="M218.262 81.1577V83.7813C218.262 86.1134 218.816 87.8334 219.924 88.9411C221.031 90.0489 223.13 90.6027 226.22 90.6027C229.31 90.6027 232.225 89.4658 234.966 87.192V70.8381L224.996 73.6366C222.372 74.3945 220.594 75.3274 219.661 76.4352C218.728 77.5429 218.262 79.1171 218.262 81.1577ZM226.133 45.1265C236.044 45.1265 241 49.3535 241 57.8074V95.3253H235.053V91.7397C232.08 94.3633 228.523 95.6751 224.384 95.6751C216.28 95.6751 212.228 91.6813 212.228 83.6939V80.8953C212.228 74.8318 215.755 70.8089 222.81 68.8266L235.053 65.4159V57.8074C234.995 55.417 234.324 53.6679 233.042 52.5601C231.759 51.4524 229.165 50.8985 225.258 50.8985C221.41 50.8985 217.854 51.4815 214.589 52.6476V46.7882C217.912 45.6804 221.76 45.1265 226.133 45.1265Z" fill="#F2F2F2"/>
<path d="M206.788 45.3015H208.974V51.2483H206.001C203.902 51.2483 202.007 51.8022 200.316 52.91C199.791 53.2598 198.654 54.0469 196.905 55.2712V95.3253H190.696V45.5638H196.643V49.3243C196.818 49.2077 197.255 48.8871 197.955 48.3624C198.713 47.8376 199.15 47.5461 199.267 47.4878C199.442 47.3712 199.821 47.138 200.404 46.7882C201.045 46.4384 201.511 46.2343 201.803 46.176C202.153 46.0594 202.619 45.9136 203.202 45.7387C204.077 45.4472 205.272 45.3015 206.788 45.3015Z" fill="#F2F2F2"/>
<path d="M151.731 82.6444V58.3321C151.731 54.1926 152.897 50.8985 155.229 48.4498C157.62 45.9428 161.205 44.6893 165.986 44.6893C170.767 44.6893 174.294 45.9428 176.568 48.4498C178.9 50.8985 180.066 54.1926 180.066 58.3321V73.5492H157.853V82.3821C157.853 85.0057 158.669 86.9588 160.302 88.2415C161.934 89.5242 164.47 90.1655 167.91 90.1655C171.35 90.1655 174.906 89.6408 178.58 88.5913V94.3633C175.664 95.2962 172.195 95.7626 168.173 95.7626C157.212 95.7626 151.731 91.3899 151.731 82.6444ZM157.853 68.3894H174.119V58.3321C174.119 52.8517 171.408 50.1114 165.986 50.1114C160.564 50.1114 157.853 52.8517 157.853 58.3321V68.3894Z" fill="#F2F2F2"/>
<path d="M134.304 51.2483H127.133C121.594 51.2483 118.825 53.7554 118.825 58.7694V82.6444C118.825 87.5419 121.186 89.9906 125.909 89.9906C129.407 89.9906 132.206 88.9994 134.304 87.0171V51.2483ZM134.304 32.3582H140.514V95.3253H134.479V92.4393C131.856 94.5382 128.591 95.5877 124.685 95.5877C120.778 95.5877 117.776 94.5091 115.677 92.3518C113.636 90.1946 112.616 87.1046 112.616 83.0817V58.6819C112.616 54.5424 113.84 51.3358 116.289 49.062C118.738 46.7299 122.003 45.5638 126.084 45.5638H134.304V32.3582Z" fill="#F2F2F2"/>
<path d="M96.1409 58.3321C96.1409 52.91 93.459 50.1989 88.0951 50.1989C82.7313 50.1989 80.0493 52.91 80.0493 58.3321V82.557C80.0493 88.0374 82.7313 90.7777 88.0951 90.7777C93.459 90.7777 96.1409 88.0374 96.1409 82.557V58.3321ZM73.9275 58.2447C73.9275 54.1052 75.0936 50.8111 77.4257 48.3624C79.7578 45.9136 83.3143 44.6893 88.0951 44.6893C92.876 44.6893 96.4324 45.9136 98.7646 48.3624C101.097 50.8111 102.263 54.1052 102.263 58.2447V82.6444C102.263 86.7839 101.097 90.078 98.7646 92.5268C96.4324 94.9755 92.876 96.1998 88.0951 96.1998C83.3143 96.1998 79.7578 94.9755 77.4257 92.5268C75.0936 90.078 73.9275 86.7839 73.9275 82.6444V58.2447Z" fill="#F2F2F2"/>
</svg>
